<mxfile host="app.diagrams.net" agent="Mozilla/5.0 (Windows NT 10.0; Win64; x64) AppleWebKit/537.36 (KHTML, like Gecko) Chrome/129.0.0.0 Safari/537.36" version="24.7.17">
  <diagram id="Ht1M8jgEwFfnCIfOTk4-" name="Page-1">
    <mxGraphModel dx="2762" dy="1647" grid="1" gridSize="10" guides="1" tooltips="1" connect="1" arrows="1" fold="1" page="1" pageScale="1" pageWidth="1169" pageHeight="827" math="0" shadow="0">
      <root>
        <mxCell id="0" />
        <mxCell id="1" parent="0" />
        <mxCell id="rOULUGVn5ljh-n2T-rPm-28" value="" style="rounded=1;whiteSpace=wrap;html=1;fillColor=#F5F5F5;strokeWidth=4;" vertex="1" parent="1">
          <mxGeometry x="-50" y="20" width="480" height="270" as="geometry" />
        </mxCell>
        <mxCell id="rOULUGVn5ljh-n2T-rPm-27" value="" style="rounded=1;whiteSpace=wrap;html=1;fillColor=#F5F5F5;strokeWidth=4;" vertex="1" parent="1">
          <mxGeometry x="520" y="40" width="790" height="450" as="geometry" />
        </mxCell>
        <mxCell id="rOULUGVn5ljh-n2T-rPm-51" value="&lt;font style=&quot;font-size: 13px;&quot;&gt;HTTP&lt;/font&gt;" style="edgeStyle=orthogonalEdgeStyle;rounded=0;orthogonalLoop=1;jettySize=auto;html=1;exitX=1;exitY=0.5;exitDx=0;exitDy=0;strokeWidth=2;entryX=0;entryY=0.5;entryDx=0;entryDy=0;dashed=1;startArrow=classic;startFill=1;" edge="1" parent="1" source="rOULUGVn5ljh-n2T-rPm-25" target="rOULUGVn5ljh-n2T-rPm-54">
          <mxGeometry relative="1" as="geometry" />
        </mxCell>
        <mxCell id="rOULUGVn5ljh-n2T-rPm-25" value="" style="rounded=1;whiteSpace=wrap;html=1;fillColor=#F5E2CB;strokeWidth=3;" vertex="1" parent="1">
          <mxGeometry x="270" y="130" width="140" height="80" as="geometry" />
        </mxCell>
        <mxCell id="rOULUGVn5ljh-n2T-rPm-92" style="edgeStyle=orthogonalEdgeStyle;rounded=0;orthogonalLoop=1;jettySize=auto;html=1;exitX=0.5;exitY=1;exitDx=0;exitDy=0;entryX=0;entryY=0.5;entryDx=0;entryDy=0;" edge="1" parent="1" source="rOULUGVn5ljh-n2T-rPm-32" target="rOULUGVn5ljh-n2T-rPm-64">
          <mxGeometry relative="1" as="geometry">
            <Array as="points">
              <mxPoint x="958" y="400" />
            </Array>
          </mxGeometry>
        </mxCell>
        <mxCell id="rOULUGVn5ljh-n2T-rPm-93" value="&lt;font style=&quot;font-size: 13px;&quot;&gt;logs execution&lt;/font&gt;" style="edgeLabel;html=1;align=center;verticalAlign=middle;resizable=0;points=[];" vertex="1" connectable="0" parent="rOULUGVn5ljh-n2T-rPm-92">
          <mxGeometry x="-0.4338" y="-2" relative="1" as="geometry">
            <mxPoint x="39" y="-2" as="offset" />
          </mxGeometry>
        </mxCell>
        <mxCell id="rOULUGVn5ljh-n2T-rPm-32" value="" style="rounded=1;whiteSpace=wrap;html=1;fillColor=#F5E2CB;strokeWidth=3;" vertex="1" parent="1">
          <mxGeometry x="790" y="130" width="335" height="230" as="geometry" />
        </mxCell>
        <mxCell id="rOULUGVn5ljh-n2T-rPm-26" value="" style="shape=image;imageAspect=0;aspect=fixed;verticalLabelPosition=bottom;verticalAlign=top;image=data:image/svg+xml,PHN2ZyB4bWxucz0iaHR0cDovL3d3dy53My5vcmcvMjAwMC9zdmciIHZpZXdCb3g9IjAgMCAyNTYgMTUzIiBoZWlnaHQ9IjEyOCIgd2lkdGg9IjIxNC4xNyI+PHBhdGggZD0iTTcyLjM5MiA1NS40MzhjMCAzLjEzNy4zNCA1LjY4LjkzMyA3LjU0NWE0NS40IDQ1LjQgMCAwIDAgMi43MTIgNi4xMDNjLjQyNC42NzguNTkzIDEuMzU2LjU5MyAxLjk1YzAgLjg0Ny0uNTA4IDEuNjk1LTEuNjEgMi41NDNsLTUuMzQgMy41NmMtLjc2My41MDktMS41MjYuNzYzLTIuMjA1Ljc2M2MtLjg0NyAwLTEuNjk1LS40MjQtMi41NDMtMS4xODdhMjYgMjYgMCAwIDEtMy4wNTEtMy45ODRjLS44NDgtMS40NC0xLjY5Ni0zLjA1Mi0yLjYyOC01LjAwMXEtOS45MTkgMTEuNjk3LTI0LjkyMiAxMS42OThjLTcuMTIgMC0xMi44LTIuMDM1LTE2Ljk1NC02LjEwM2MtNC4xNTMtNC4wNy02LjI3Mi05LjQ5NS02LjI3Mi0xNi4yNzZjMC03LjIwNSAyLjU0My0xMy4wNTQgNy43MTQtMTcuNDYyYzUuMTctNC40MDggMTIuMDM3LTYuNjEyIDIwLjc2OC02LjYxMmMyLjg4MiAwIDUuODQ5LjI1NCA4Ljk4NS42NzhjMy4xMzcuNDI0IDYuMzU4IDEuMTAyIDkuNzQ5IDEuODY1VjI5LjMzYzAtNi40NDMtMS4zNTctMTAuOTM1LTMuOTg1LTEzLjU2M2MtMi43MTItMi42MjgtNy4yOS0zLjktMTMuODE3LTMuOWMtMi45NjcgMC02LjAxOC4zNC05LjE1NSAxLjEwM3MtNi4xODggMS42OTUtOS4xNTUgMi44ODJjLTEuMzU2LjU5My0yLjM3My45MzItMi45NjcgMS4xMDJzLTEuMDE3LjI1NC0xLjM1Ni4yNTRjLTEuMTg3IDAtMS43OC0uODQ4LTEuNzgtMi42Mjh2LTQuMTU0YzAtMS4zNTYuMTctMi4zNzMuNTkzLTIuOTY2Yy40MjQtLjU5NCAxLjE4Ny0xLjE4NyAyLjM3NC0xLjc4cTQuNDUtMi4yOSAxMC42OC0zLjgxNUMzMy45MDguNzYzIDM4LjMxNi4yNTUgNDIuOTc4LjI1NWMxMC4wODggMCAxNy40NjMgMi4yODggMjIuMjEgNi44NjZjNC42NjIgNC41NzcgNy4wMzYgMTEuNTI4IDcuMDM2IDIwLjg1M3YyNy40NjR6TTM3Ljk3NiA2OC4zMjNjMi43OTggMCA1LjY4LS41MDggOC43MzEtMS41MjZjMy4wNTItMS4wMTcgNS43NjUtMi44ODIgOC4wNTMtNS40MjVjMS4zNTctMS42MSAyLjM3NC0zLjM5IDIuODgyLTUuNDI1Yy41MDktMi4wMzQuODQ4LTQuNDkzLjg0OC03LjM3NXYtMy41NmE3MSA3MSAwIDAgMC03Ljc5OS0xLjQ0MWE2NCA2NCAwIDAgMC03Ljk2OC0uNTA5Yy01LjY4IDAtOS44MzMgMS4xMDItMTIuNjMgMy4zOTFzLTQuMTU0IDUuNTEtNC4xNTQgOS43NDhjMCAzLjk4NCAxLjAxNyA2Ljk1MSAzLjEzNiA4Ljk4NmMyLjAzNSAyLjExOSA1LjAwMiAzLjEzNiA4LjkwMSAzLjEzNm02OC4wNjkgOS4xNTVjLTEuNTI2IDAtMi41NDMtLjI1NC0zLjIyMS0uODQ4Yy0uNjc4LS41MDgtMS4yNzItMS42OTUtMS43OC0zLjMwNUw4MS4xMjQgNy43OTljLS41MS0xLjY5Ni0uNzY0LTIuNzk4LS43NjQtMy4zOTFjMC0xLjM1Ni42NzgtMi4xMiAyLjAzNS0yLjEyaDguMzA3YzEuNjEgMCAyLjcxMy4yNTUgMy4zMDYuODQ4Yy42NzguNTA5IDEuMTg3IDEuNjk2IDEuNjk1IDMuMzA2bDE0LjI0MSA1Ni4xMTdsMTMuMjI0LTU2LjExN2MuNDI0LTEuNjk1LjkzMy0yLjc5NyAxLjYxLTMuMzA2Yy42NzktLjUwOCAxLjg2Ni0uODQ3IDMuMzkyLS44NDdoNi43ODFjMS42MSAwIDIuNzEzLjI1NCAzLjM5Ljg0N2MuNjc5LjUwOSAxLjI3MiAxLjY5NiAxLjYxMSAzLjMwNmwxMy4zOTQgNTYuNzk1TDE2OC4wMSA2LjQ0MmMuNTA4LTEuNjk1IDEuMTAyLTIuNzk3IDEuNjk1LTMuMzA2Yy42NzgtLjUwOCAxLjc4LS44NDcgMy4zMDYtLjg0N2g3Ljg4M2MxLjM1NyAwIDIuMTIuNjc4IDIuMTIgMi4xMTljMCAuNDI0LS4wODUuODQ4LS4xNyAxLjM1NnMtLjI1NCAxLjE4Ny0uNTkzIDIuMTJsLTIwLjQzIDY1LjUyNXEtLjc2MiAyLjU0NC0xLjc4IDMuMzA2Yy0uNjc4LjUwOS0xLjc4Ljg0OC0zLjIyLjg0OGgtNy4yOWMtMS42MTEgMC0yLjcxMy0uMjU0LTMuMzkyLS44NDhjLS42NzgtLjU5My0xLjI3MS0xLjY5NS0xLjYxLTMuMzlsLTEzLjE0LTU0LjY3NmwtMTMuMDU0IDU0LjU5Yy0uNDIzIDEuNjk2LS45MzIgMi43OTgtMS42MSAzLjM5MWMtLjY3OC41OTQtMS44NjUuODQ4LTMuMzkuODQ4em0xMDguOTI3IDIuMjg5Yy00LjQwOCAwLTguODE2LS41MDktMTMuMDU0LTEuNTI2Yy00LjIzOS0xLjAxNy03LjU0NC0yLjEyLTkuNzQ4LTMuMzljLTEuMzU3LS43NjQtMi4yOS0xLjYxMS0yLjYyOC0yLjM3NGE2IDYgMCAwIDEtLjUwOS0yLjM3NFY2NS43OGMwLTEuNzguNjc4LTIuNjI4IDEuOTUtMi42MjhhNC44IDQuOCAwIDAgMSAxLjUyNi4yNTVjLjUwOC4xNyAxLjI3MS41MDggMi4xMTkuODQ3YTQ2IDQ2IDAgMCAwIDkuMzI0IDIuOTY3YTUxIDUxIDAgMCAwIDEwLjA4OCAxLjAxN2M1LjM0IDAgOS40OTQtLjkzMiAxMi4zNzYtMi43OTdzNC40MDgtNC41NzcgNC40MDgtOC4wNTNjMC0yLjM3My0uNzYzLTQuMzIzLTIuMjg5LTUuOTM0cy00LjQwOC0zLjA1MS04LjU2MS00LjQwOGwtMTIuMjkyLTMuODE0Yy02LjE4OC0xLjk1LTEwLjc2NS00LjgzMi0xMy41NjMtOC42NDdjLTIuNzk3LTMuNzMtNC4yMzgtNy44ODMtNC4yMzgtMTIuMjkxcTAtNS4zNCAyLjI4OS05LjQxYzEuNTI1LTIuNzEyIDMuNTYtNS4wODUgNi4xMDMtNi45NWMyLjU0My0xLjk1IDUuNDI1LTMuMzkxIDguODE2LTQuNDA4YzMuMzktMS4wMTcgNi45NS0xLjQ0MSAxMC42OC0xLjQ0MWMxLjg2NSAwIDMuODE1LjA4NSA1LjY4LjMzOWMxLjk1LjI1NCAzLjczLjU5MyA1LjUxLjkzMmMxLjY5NS40MjQgMy4zMDYuODQ4IDQuODMyIDEuMzU3cTIuMjg4Ljc2MiAzLjU2IDEuNTI1YzEuMTg3LjY3OSAyLjAzNCAxLjM1NyAyLjU0MyAyLjEycS43NjMgMS4wMTcuNzYzIDIuNzk3djMuOTg0YzAgMS43OC0uNjc4IDIuNzEzLTEuOTUgMi43MTNjLS42NzggMC0xLjc4LS4zNC0zLjIyLTEuMDE4cS03LjI1LTMuMzA2LTE2LjI3Ni0zLjMwNmMtNC44MzIgMC04LjY0Ny43NjMtMTEuMjc1IDIuMzc0Yy0yLjYyNyAxLjYxLTMuOTg0IDQuMDY5LTMuOTg0IDcuNTQ0YzAgMi4zNzQuODQ4IDQuNDA4IDIuNTQzIDYuMDE5czQuODMyIDMuMjIxIDkuMzI1IDQuNjYybDEyLjAzNyAzLjgxNWM2LjEwMyAxLjk1IDEwLjUxMSA0LjY2MiAxMy4xMzkgOC4xMzdzMy45IDcuNDYgMy45IDExLjg2OGMwIDMuNjQ1LS43NjQgNi45NTEtMi4yMDUgOS44MzNjLTEuNTI1IDIuODgyLTMuNTYgNS40MjUtNi4xODggNy40NmMtMi42MjggMi4xMTktNS43NjQgMy42NDUtOS40MDkgNC43NDdjLTMuODE1IDEuMTg3LTcuNzk5IDEuNzgtMTIuMTIyIDEuNzgiIGZpbGw9IiMyNTJGM0UiLz48cGF0aCBkPSJNMjMwLjk5MyAxMjAuOTY0Yy0yNy44ODggMjAuNTk5LTY4LjQwOCAzMS41MzQtMTAzLjI0NyAzMS41MzRjLTQ4LjgyNyAwLTkyLjgyMS0xOC4wNTYtMTI2LjA1LTQ4LjA2NGMtMi42MjgtMi4zNzMtLjI1NS01LjU5NCAyLjg4MS0zLjczYzM1Ljk0MiAyMC44NTQgODAuMjc2IDMzLjQ4NCAxMjYuMTM2IDMzLjQ4NGMzMC45NCAwIDY0LjkzMi02LjQ0MiA5Ni4yMTItMTkuNjY2YzQuNjYyLTIuMTIgOC42NDYgMy4wNTIgNC4wNjggNi40NDJtMTEuNjE0LTEzLjIyNGMtMy41Ni00LjU3Ny0yMy41NjYtMi4yMDQtMzIuNjM2LTEuMTAyYy0yLjcxMy4zNC0zLjEzNy0yLjAzNC0uNjc4LTMuODE0YzE1LjkzNi0xMS4xOSA0Mi4xMy03Ljk2OCA0NS4xODEtNC4yMzljMy4wNTIgMy44MTUtLjg0OCAzMC4wMDgtMTUuNzY3IDQyLjU1NGMtMi4yODggMS45NS00LjQ5Mi45MzMtMy40NzUtMS42MWMzLjM5LTguMzkzIDEwLjkzNS0yNy4yOTYgNy4zNzUtMzEuNzg5IiBmaWxsPSIjRjkwIi8+PC9zdmc+;" vertex="1" parent="1">
          <mxGeometry x="550" y="62" width="63.53" height="38" as="geometry" />
        </mxCell>
        <mxCell id="UEzPUAAOIrF-is8g5C7q-113" value="&lt;font style=&quot;font-size: 14px;&quot;&gt;&lt;b&gt;Lambda&lt;/b&gt;&lt;/font&gt;" style="outlineConnect=0;fontColor=#232F3E;gradientColor=none;gradientDirection=north;fillColor=none;strokeColor=#0D0D0D;dashed=0;verticalLabelPosition=bottom;verticalAlign=top;align=center;html=1;fontSize=12;fontStyle=0;aspect=fixed;shape=mxgraph.aws4.resourceIcon;resIcon=mxgraph.aws4.lambda;labelBackgroundColor=#ffffff;spacingTop=3;strokeWidth=3;" parent="1" vertex="1">
          <mxGeometry x="810" y="137" width="78" height="78" as="geometry" />
        </mxCell>
        <mxCell id="rOULUGVn5ljh-n2T-rPm-14" value="" style="shape=image;imageAspect=0;aspect=fixed;verticalLabelPosition=bottom;verticalAlign=top;image=data:image/svg+xml,PHN2ZyB4bWxucz0iaHR0cDovL3d3dy53My5vcmcvMjAwMC9zdmciIHZpZXdCb3g9IjAgMCA1MTIgMTM5IiBoZWlnaHQ9IjEyOCIgd2lkdGg9IjQ3MS40OSI+PHBhdGggZD0ibTEyMC4yMTggOTUuMDdsLS4wNzItLjIyOGw0NS41MjMtNDEuNjc1di0yMC4wOEg5Mi42MzR2MjAuMDhoNDMuNjI0bC4wNzIuMTkyTDkxLjI1MSA5NS4wN3YyMC4wOGg3NS4xNTJWOTUuMDd6bTkxLjAyMi02My44OTZxLTEyLjYzNiAwLTIwLjU5NyAzLjgxMmEyNy4wMyAyNy4wMyAwIDAgMC0xMS45NTIgMTAuNDczYTM4LjEgMzguMSAwIDAgMC01LjAxNCAxNS4xNWwyMi4xNiAzLjExNXExLjIwNC03LjA4MiA0LjgxLTEwLjA0YTE0LjcgMTQuNyAwIDAgMSA4LjUtMi45NThsMS4wMjMuMDEycTYuNzQ3IDAgOS43ODcgMy42MDdjMi4wMSAyLjQwNSAzLjAzMiA1LjczNSAzLjAzMiAxMC4xMjR2Mi4xODlIMjAxLjY4cS0xNi4yNjggMC0yMy4zNzUgNy4yMTR0LTcuMDk0IDE5LjA0NnEwIDEyLjEyIDcuMDk0IDE4LjAzN3E3LjA5NSA1LjkxNSAxNy44NDQgNS44OHExMy4zMzYgMCAyMC41MTMtOS4xNzVhMzQuMSAzNC4xIDAgMCAwIDUuOTI4LTEyLjYzN2guODA2bDMuMDU0IDIwLjA4aDIwLjA4di01MC44NXEwLTE1Ljc2NS04LjMwOC0yNC40MjFxLTguMzEtOC42NTgtMjYuOTgzLTguNjU4bTcuMDIzIDYyLjY4MmMtMy4xODcgMi42NTgtNy4zNiAzLjk4LTEyLjU1NCAzLjk4cS02LjQyIDAtOC45MjEtMi4yNDhhNy4zNSA3LjM1IDAgMCAxLTIuNTE0LTUuNzEyYTcuNSA3LjUgMCAwIDEgMi4wOC01LjU0M2E3LjczIDcuNzMgMCAwIDEgNC45My0yLjA4M2wyMS43NC4wMDN2MS4zODNhMTIuNzYgMTIuNzYgMCAwIDEtNC43NjEgMTAuMjJtMTQ5LjY4OS02MC43N2gtMjMuNzIzdjgyLjA3N2gyMy43MjN6bTE0MC4wNjkgMHEtMTAuMDUzIDAtMTUuODQ5IDcuMDk0cS00LjE1OCA1LjA5OS02LjMyMyAxNS4wNjdoLS42OThsLTMuMTAzLTIyLjE2aC0yMC4yNnY4Mi4wNjRoMjMuNzI1VjczLjA2NnEwLTcuOTU5IDMuNzI3LTEyLjIwNHEzLjcyOC00LjI0NSAxMy43NTQtNC4yNDVINTEydi0yMy41M3ptLTY5Ljc3NyAyLjY4MnEtOC4zMDctNC45NDItMjAuOTU3LTQuOTNxLTE5LjkxMyAwLTMxLjE2NiAxMS4zMzhxLTExLjI1NiAxMS4zNC0xMS4yNTUgMzEuMjYzYTQ5LjggNDkuOCAwIDAgMCA1LjExIDIzLjE5NWEzNi44MyAzNi44MyAwIDAgMCAxNC41NDkgMTUuMzNxOS40MjUgNS40NDggMjIuNDI2IDUuNDZxMTEuMjQxIDAgMTguNzgtMy40NjNhMzAuMiAzMC4yIDAgMCAwIDExLjk1My05LjQ0YTQxLjIgNDEuMiAwIDAgMCA2LjQ5Mi0xMy40MThsLTIwLjQ0LTUuNzI0YTE4Ljk1IDE4Ljk1IDAgMCAxLTQuODEgOC4zMjFxLTMuNDY1IDMuNDYzLTExLjYwMyAzLjQ2M3EtOS42OCAwLTE0LjQzLTUuNTQzYy0yLjI5Ny0yLjY3LTMuNzQtNi40ODEtNC4zNzYtMTEuNDIzaDU1Ljk3MmMuMjMtMi4zMDkuMzUtNC4yNDUuMzUtNS44MDh2LTUuMTFhNDUuNiA0NS42IDAgMCAwLTQuMTQ4LTE5LjkxMmEzMS4xNyAzMS4xNyAwIDAgMC0xMi40NDctMTMuNk00MTYuNjAyIDUwLjRxMTQuNDI4IDAgMTYuMzYzIDE0LjJoLTM0LjAyOGExOS41NSAxOS41NSAwIDAgMSAzLjgxMi04LjY2OXE0LjY3OS01LjU0MyAxMy44NTMtNS41MzFNMzU2LjM0OC4wMDhhMTMuMzIgMTMuMzIgMCAwIDAtOS43MDQgMy43MjdhMTIuODcgMTIuODcgMCAwIDAtMy44MDYgOC41NTNsLS4wMDUgMS4wNjZhMTMuMDQgMTMuMDQgMCAwIDAgMy44MTcgOS42OTVhMTMuMDQgMTMuMDQgMCAwIDAgOC42MjUgMy44MDRsMS4wNzMuMDA1YTEyLjgzIDEyLjgzIDAgMCAwIDkuNjItMy44MTJhMTMuMiAxMy4yIDAgMCAwIDMuNzEyLTguNjIzbC4wMDQtMS4wNjlhMTIuNzUgMTIuNzUgMCAwIDAtLjg0Ny01LjE5NWExMi44IDEyLjggMCAwIDAtMi44NzItNC40MTJBMTIuNzcgMTIuNzcgMCAwIDAgMzU2LjM2LjAyem0tNDkuMDEgMzAuODNxLTEyLjEyIDAtMTkuNDc5IDcuNjFxLTUuNDQ4IDUuNjQtNy45OTYgMTYuODM1aC0uNzU3bC0zLjEwMy0yMi4xNmgtMjAuMjZ2MTA1LjYyaDIzLjcyMlY5NS4yMzloLjg2NmE0NC4zIDQ0LjMgMCAwIDAgMy4wMyA4LjQxN2EyMy45IDIzLjkgMCAwIDAgOS40NCAxMC41NTdhMjcuNyAyNy43IDAgMCAwIDE0LjAyIDMuMzhxMTQuODk3IDAgMjIuNjg4LTExLjYwNHE3Ljc5My0xMS42MDQgNy43OTMtMzIuMzgxcS0uMDAxLTIwLjA2OS03LjUzOC0zMS40MnEtNy41NC0xMS4zNS0yMi40MjYtMTEuMzVtMi40MDUgNTkuNDcxcS0zLjg3MyA1LjYxMi0xMS44MyA1Ljk4NWwtMS4xNTcuMDI3YTE1LjMgMTUuMyAwIDAgMS0xMi43Mi01LjgwN3EtNC42MDctNS43ODQtNC41OTQtMTUuODM2di0xLjU2M3EwLTEwLjIxIDQuNTkzLTE1LjYzMnE0LjU5My01LjQyMyAxMi43Mi01LjM2M3E4Ljk5NiAwIDEzLjA3MiA1LjcxMnE0LjA3NyA1LjcxMiA0LjA3NiAxNS45MzJxLjAyNiAxMC41NjktNC4xMzcgMTYuNTQ1eiIgZmlsbD0iIzIwMTUxNSIvPjxwYXRoIGQ9Ik04Mi4wNzcgOTUuMDcxSDB2MjAuMTA0aDgyLjA3N3oiIGZpbGw9IiNGRjRGMDAiLz48L3N2Zz4=;" vertex="1" parent="1">
          <mxGeometry x="-20" y="34" width="103.03" height="28" as="geometry" />
        </mxCell>
        <mxCell id="rOULUGVn5ljh-n2T-rPm-46" style="edgeStyle=orthogonalEdgeStyle;rounded=0;orthogonalLoop=1;jettySize=auto;html=1;exitX=1;exitY=0.5;exitDx=0;exitDy=0;entryX=0;entryY=0.5;entryDx=0;entryDy=0;" edge="1" parent="1" source="rOULUGVn5ljh-n2T-rPm-29" target="rOULUGVn5ljh-n2T-rPm-25">
          <mxGeometry relative="1" as="geometry" />
        </mxCell>
        <mxCell id="rOULUGVn5ljh-n2T-rPm-64" value="" style="rounded=1;whiteSpace=wrap;html=1;fillColor=#F5E2CB;strokeWidth=3;" vertex="1" parent="1">
          <mxGeometry x="1150" y="360" width="140" height="80" as="geometry" />
        </mxCell>
        <mxCell id="rOULUGVn5ljh-n2T-rPm-53" value="&lt;font style=&quot;font-size: 14px;&quot;&gt;&lt;b&gt;CloudWatch Logs&lt;/b&gt;&lt;/font&gt;" style="sketch=0;points=[[0,0,0],[0.25,0,0],[0.5,0,0],[0.75,0,0],[1,0,0],[0,1,0],[0.25,1,0],[0.5,1,0],[0.75,1,0],[1,1,0],[0,0.25,0],[0,0.5,0],[0,0.75,0],[1,0.25,0],[1,0.5,0],[1,0.75,0]];points=[[0,0,0],[0.25,0,0],[0.5,0,0],[0.75,0,0],[1,0,0],[0,1,0],[0.25,1,0],[0.5,1,0],[0.75,1,0],[1,1,0],[0,0.25,0],[0,0.5,0],[0,0.75,0],[1,0.25,0],[1,0.5,0],[1,0.75,0]];outlineConnect=0;fontColor=#232F3E;fillColor=none;strokeColor=#000000;dashed=0;verticalLabelPosition=bottom;verticalAlign=top;align=center;html=1;fontSize=12;fontStyle=0;aspect=fixed;shape=mxgraph.aws4.resourceIcon;resIcon=mxgraph.aws4.cloudwatch_2;strokeWidth=2;perimeterSpacing=2;" vertex="1" parent="1">
          <mxGeometry x="1181" y="362" width="78" height="78" as="geometry" />
        </mxCell>
        <mxCell id="rOULUGVn5ljh-n2T-rPm-55" value="" style="group" vertex="1" connectable="0" parent="1">
          <mxGeometry x="540" y="130" width="140" height="81" as="geometry" />
        </mxCell>
        <mxCell id="rOULUGVn5ljh-n2T-rPm-54" value="" style="rounded=1;whiteSpace=wrap;html=1;fillColor=#F5E2CB;strokeWidth=3;" vertex="1" parent="rOULUGVn5ljh-n2T-rPm-55">
          <mxGeometry y="1" width="140" height="80" as="geometry" />
        </mxCell>
        <mxCell id="UEzPUAAOIrF-is8g5C7q-114" value="&lt;font style=&quot;font-size: 14px;&quot;&gt;&lt;b&gt;API&lt;br&gt;Gateway&lt;/b&gt;&lt;/font&gt;" style="outlineConnect=0;fontColor=#232F3E;gradientColor=none;gradientDirection=north;fillColor=none;strokeColor=#000000;dashed=0;verticalLabelPosition=bottom;verticalAlign=top;align=center;html=1;fontSize=12;fontStyle=0;aspect=fixed;shape=mxgraph.aws4.resourceIcon;resIcon=mxgraph.aws4.api_gateway;labelBackgroundColor=#ffffff;strokeWidth=22;perimeterSpacing=9;shadow=0;" parent="rOULUGVn5ljh-n2T-rPm-55" vertex="1">
          <mxGeometry x="31" width="78" height="78" as="geometry" />
        </mxCell>
        <mxCell id="rOULUGVn5ljh-n2T-rPm-57" value="&lt;font style=&quot;font-size: 13px;&quot;&gt;triggers&lt;/font&gt;" style="edgeStyle=orthogonalEdgeStyle;rounded=0;orthogonalLoop=1;jettySize=auto;html=1;exitX=1;exitY=0.5;exitDx=0;exitDy=0;entryX=-0.003;entryY=0.183;entryDx=0;entryDy=0;entryPerimeter=0;strokeWidth=2;" edge="1" parent="1" source="rOULUGVn5ljh-n2T-rPm-54" target="rOULUGVn5ljh-n2T-rPm-32">
          <mxGeometry relative="1" as="geometry" />
        </mxCell>
        <mxCell id="rOULUGVn5ljh-n2T-rPm-62" value="" style="rounded=1;whiteSpace=wrap;html=1;fillColor=#FFFEEB;strokeWidth=3;" vertex="1" parent="1">
          <mxGeometry x="900" y="177" width="197" height="143" as="geometry" />
        </mxCell>
        <mxCell id="rOULUGVn5ljh-n2T-rPm-63" value="SendRentReceipts.py&#xa;" style="shape=image;imageAspect=0;aspect=fixed;verticalLabelPosition=bottom;verticalAlign=top;image=data:image/svg+xml,PHN2ZyB4bWxucz0iaHR0cDovL3d3dy53My5vcmcvMjAwMC9zdmciIGhlaWdodD0iNTBweCIgd2lkdGg9IjUwcHgiIHZpZXdCb3g9IjAgMCA1MCA1MCIgZmlsbD0iIzAwMDAwMCI+PHBhdGggZD0iTSAyNC41IDIgQyAxNS44MDA3ODEgMiAxNCA2LjQ5MjE4OCAxNCA5LjA5Mzc1IEwgMTQgMTQgTCAyNCAxNCBMIDI0IDE1IEwgOS4wOTM3NSAxNSBDIDUuNzkyOTY5IDE1IDIgMTcuNjAxNTYzIDIgMjUgQyAyIDMyLjM5ODQzOCA1Ljc5Mjk2OSAzNSA5LjA5Mzc1IDM1IEwgMTUgMzUgTCAxNSAyOSBDIDE1IDI2LjgwMDc4MSAxNi44MDA3ODEgMjUgMTkgMjUgTCAzMSAyNSBDIDMyLjY5OTIxOSAyNSAzNCAyMy42OTkyMTkgMzQgMjIgTCAzNCA5LjA5Mzc1IEMgMzQgNS41OTM3NSAzMC42OTkyMTkgMiAyNC41IDIgWiBNIDIwIDcgQyAyMS4xMDE1NjMgNyAyMiA3Ljg5ODQzOCAyMiA5IEMgMjIgMTAuMTAxNTYzIDIxLjEwMTU2MyAxMSAyMCAxMSBDIDE4Ljg5ODQzOCAxMSAxOCAxMC4xMDE1NjMgMTggOSBDIDE4IDcuODk4NDM4IDE4Ljg5ODQzOCA3IDIwIDcgWiBNIDM1IDE1IEwgMzUgMjIgQyAzNSAyNC4xOTkyMTkgMzMuMTk5MjE5IDI2IDMxIDI2IEwgMTkgMjYgQyAxNy4zMDA3ODEgMjYgMTYgMjcuMzAwNzgxIDE2IDI5IEwgMTYgNDAuOTA2MjUgQyAxNiA0NC40MDYyNSAxOS4zMDA3ODEgNDggMjUuNSA0OCBDIDM0LjE5OTIxOSA0OCAzNiA0My41MDc4MTMgMzYgNDAuOTA2MjUgTCAzNiAzNiBMIDI2IDM2IEwgMjYgMzUgTCA0MC45MDYyNSAzNSBDIDQ0LjIwNzAzMSAzNSA0OCAzMi4zOTg0MzggNDggMjUgQyA0OCAxNy42MDE1NjMgNDQuMjA3MDMxIDE1IDQwLjkwNjI1IDE1IFogTSAzMCAzOSBDIDMxLjEwMTU2MyAzOSAzMiAzOS44OTg0MzggMzIgNDEgQyAzMiA0Mi4xMDE1NjMgMzEuMTAxNTYzIDQzIDMwIDQzIEMgMjguODk4NDM4IDQzIDI4IDQyLjEwMTU2MyAyOCA0MSBDIDI4IDM5Ljg5ODQzOCAyOC44OTg0MzggMzkgMzAgMzkgWiIvPjwvc3ZnPg==;fontSize=14;fontStyle=1" vertex="1" parent="1">
          <mxGeometry x="962" y="208.5" width="73" height="73" as="geometry" />
        </mxCell>
        <mxCell id="rOULUGVn5ljh-n2T-rPm-91" value="&lt;font style=&quot;font-size: 13px;&quot;&gt;logs received http requests&lt;/font&gt;" style="edgeStyle=orthogonalEdgeStyle;rounded=0;orthogonalLoop=1;jettySize=auto;html=1;exitX=0.75;exitY=1;exitDx=0;exitDy=0;entryX=0;entryY=0.75;entryDx=0;entryDy=0;" edge="1" parent="1" source="rOULUGVn5ljh-n2T-rPm-54" target="rOULUGVn5ljh-n2T-rPm-64">
          <mxGeometry relative="1" as="geometry">
            <Array as="points">
              <mxPoint x="645" y="420" />
            </Array>
          </mxGeometry>
        </mxCell>
        <mxCell id="rOULUGVn5ljh-n2T-rPm-101" value="" style="shape=image;imageAspect=0;aspect=fixed;verticalLabelPosition=bottom;verticalAlign=top;image=data:image/jpeg,/9j/4AAQSkZJRgABAQEAYABgAAD/4QBaRXhpZgAATU0AKgAAAAgABQMBAAUAAAABAAAASgMDAAEAAAABAAAAAFEQAAEAAAABAQAAAFERAAQAAAABAAAOw1ESAAQAAAABAAAOwwAAAAAAAYagAACxj//bAEMAAgEBAgEBAgICAgICAgIDBQMDAwMDBgQEAwUHBgcHBwYHBwgJCwkICAoIBwcKDQoKCwwMDAwHCQ4PDQwOCwwMDP/bAEMBAgICAwMDBgMDBgwIBwgMDAwMDAwMDAwMDAwMDAwMDAwMDAwMDAwMDAwMDAwMDAwMDAwMDAwMDAwMDAwMDAwMDP/AABEIAV4CwgMBIgACEQEDEQH/xAAfAAABBQEBAQEBAQAAAAAAAAAAAQIDBAUGBwgJCgv/xAC1EAACAQMDAgQDBQUEBAAAAX0BAgMABBEFEiExQQYTUWEHInEUMoGRoQgjQrHBFVLR8CQzYnKCCQoWFxgZGiUmJygpKjQ1Njc4OTpDREVGR0hJSlNUVVZXWFlaY2RlZmdoaWpzdHV2d3h5eoOEhYaHiImKkpOUlZaXmJmaoqOkpaanqKmqsrO0tba3uLm6wsPExcbHyMnK0tPU1dbX2Nna4eLj5OXm5+jp6vHy8/T19vf4+fr/xAAfAQADAQEBAQEBAQEBAAAAAAAAAQIDBAUGBwgJCgv/xAC1EQACAQIEBAMEBwUEBAABAncAAQIDEQQFITEGEkFRB2FxEyIygQgUQpGhscEJIzNS8BVictEKFiQ04SXxFxgZGiYnKCkqNTY3ODk6Q0RFRkdISUpTVFVWV1hZWmNkZWZnaGlqc3R1dnd4eXqCg4SFhoeIiYqSk5SVlpeYmZqio6Slpqeoqaqys7S1tre4ubrCw8TFxsfIycrS09TV1tfY2dri4+Tl5ufo6ery8/T19vf4+fr/2gAMAwEAAhEDEQA/AP38ooooAKKKKACiiigAooooAKKKKACiiigAooooAKKKKACiiigAooooAKKKKACiiigAooooAKKKKACiiigAooooAKKKKACiiigAooooAKKKKACiiigAooooAKKKKACiiigAooooAKKKKACiiigAooooAKKKKACiiigAooooAKKKKACiiigAooooAKKKKACiiigAooooAKKKKACiiigAooooAKKKKACiiigAooooAKKKKACiiigAooooAyPHnjax+HPhK81rUjKLOxVTJ5SbnJZgqgD1LMBzgc9q8V1b9v3S4ZlFj4dv7iP+Jp7lIWH0Ch/516D+1HpVxrfwJ1y1tY/Mnl+z7V3Bc4uIieTx0Br4v+C0Gk/GmfXm0zVobmHwtrNx4f1VYkcSW19b7fOg+ZQCV3r8y7lOeCa/n/xZ46z/ACfMoYPKpKMPZxk3yqTTc5x1ck0laKtp3P1Dgnh/JsXgZ4rMtZKTSXM1paL2Vnu2fanwb/aE0P40JLFY+daajbpvltJ8b9vTcpHDLkgeoyMgZFO+Mf7QOh/BeGJL4zXWoXC7orODBkK/3mJOFXPGTyecA4OPlH9mHxro3xA8YeCfHPw91RNY8J+IL/7Na3UaSR71EjwTgrIqvgGOXkj+H6E5n7W3jux8G63448ceLNWt9H8N6FqjWV1f3AkkW3AmS3iGyNWc5Zo14U/e+przf+ItZyuHr+y/232vsr8rtte/L/P9nl2vrb7J3U+B8snmq99rD8nNZv3r3ty33tf59PM970n9vzSpnk+3eHtQtlH3DBcJMW+oYJj9a9o8BeN7H4jeEbPWtN877HfKxQSptdSrFWBHqGUjgkcd6+HPiBZ+E/g7o+ix+KNcXT77xZrFt4f0mRoZHSe/n3GGABAcb9jDc2FGOo7/AGB+zRocvhv4JaLZTNG8kPn5ZM7Tm4kYdfrXqeE/HOf5xmM8JmslKHs5ST5VF3U4LeKSatJ307Hm8aZJk2Fwka+WpxlzqNrtprlbur3e6XX5bHd0Vwv7TP7QWjfsq/AbxP8AETxFa6peaL4Tsze3cGnRpJdSIGVcRrI6KWyw6sB715z/AME+f+Cj3gf/AIKSeAte8ReBtK8V6VZeHdQXTrlNdtreCV5GjEgKCGaUFcMOSQc9u9fv19bH5mfQFFFFABRRRQAUUUUAFFFcd8bv2hPA/wCzZ4QGv+PvFWh+EtHaUQJdandLAkshBYRpnl3IUnaoJwDxxQB2NFcz8HPjH4a/aA+G+l+L/B+qR614b1pGksr2OKSNbhVdkJCuqtjcpHI5xkcV01ABRRX55+Kf+C5114d/4KrQ/s8r8N5JtHOtReHpNX+3MLw3EiqROsOzb5ILDjdkr82R92k5JbgfoZRRRTAKKKKACiiigAooooAKKKKACiiigAooooAKKKKACiiigAooooAKKKKACiiigAooooAKKKKACiiigAooooAKKKKACiiigAooooAKKKKACiiigAooooAKKKKACiiigAooooAKKKKACiiigAooooAKKKKACiiigAooooAKKKKACiiigAooooAKKKKAMf4gaHJ4k8HX1nD/AK6VAUH95lYMB+OMV8f+JNV0X4LeIJLO00W/0U6hfSanqQ0zw68keoTyDEkk0kSYEpIBZ2O4hRnjmvev28vijrvwY/ZQ8VeJvDN9/Zut6b9k+zXPkxzeXvvII2+WRWU5R2HIOM564Nfn54W/4KEeKPHWia/p3ji4bX9S1S1FpptzHaw2pjZ/3ZVxEiqVAcuDjPykZ5GPz/xF8Isxz/K5cTZalOVBckqfNZyimpc12uVKHO5Nt7XellfsyTj/AC7Ks1p5Jj7pVbSUkrpN3SXVtvlsko721109X8KftZ6L8FWgs/BPgvRrWx0kyf2dH5YtrW2Zy290giCgbt79xneSeTWbofx40n4mXGsaT448PaTqeneJr576eCS2FxavKziRUaGXcCodVKkk4IU9sjN0vSvAHg3x98LvDerWfiDU9c+J1pd3FiyhWsbd7S2S4mEzKVZAQ+EGGyRg+tbnjDxN4J+Kvin4keE7XStQsde+EtjZtPdeQsFtJ9qtnuIEhYMfMUBcMCo2k4HXNfxb7bPJYWPPN+zjeqlZdZKLldK920o3bb0sf0xJ5HGq8PTpSvL3XO7urPS13tza9F5M6Twt4/8ADfxm8TyWWoaPq2qf2Lerqdodb8KzWsOjTxA7JFlnjCiZckqwIcZOOMmvr74B6vDrvwo0u6tzuhdp1Vv7wWeRc/Q4z+Nflv8AG39ufXPFvh+x0fTbU6NeWMn/ABMLkss32p0yuFVlwqk/Nzk5wO2T+g//AATd8R3vi39i7wZqGoTfaLy4+3eZJsVN22+uFHCgDoAOBX9geHvhPnmQ8vEOYRhTo1oOEYc/PO7cZKXuxUOWUYN6SctY3V7n5JxpjsHVw/sqEZKSmtHZrRST10d72+yrd2cr/wAFl/8AlF78aP8AsAN/6Njr5E/4NRf+TXfih/2NMX/pJHX13/wWX/5Re/Gj/sAN/wCjY6+Bv+DaP9qz4Y/s/fs5/EWw8d/EPwT4Nvr/AMSR3Ftb63rVvYS3EYtUUuiyupZcgjI4yK/Tn8SPzjofq1+0p+0X4X/ZO+CWv+P/ABletY+H/DsHnTsi7pZmJCpFGuRukdiqqMjJPUDJr8q4v+Dgb9pr9o3VNU1X4G/s6Q614P0mUxzSzaTqWuTKBzh5bV4o0kK4OwKxGerDk+uf8F8/ix4b/av/AOCZWtX3wt8YeHPHWn+E/EWn3evHw/qcOoLaQESIpl8lm2gOyHnsM9BVj/ggx+3N8E/A3/BOXQPDereOvBfg3X/C895/bNnq+qQafNIzzvILgCRlMitGyDcucFdvUYobu7Ad9/wSk/4LZ6L/AMFCfFF/4G8S+G/+EG+JGmQvcCyWcy2upxxkCUxFgHjkQn5omyQOQxwwHIf8FHf+C8sn7Nvx5b4QfB7wO3xM+I0MgtrrcJZba1uWAIto4IB5txKAfmCsgU8ZY5C/FX/BPq8i/aj/AODh7VPHXw7glk8H2+u6trk1zFGY4vsbQSxCRuOBLLIpAOCS/rmsj9h74q6D+x7/AMF6/G2ofGG+t9BVtb12zOpakdsNnPcys0EzueERo2wHOFAkBJA5qeZ2Cx9efsmf8F0vjIf2ovD/AMLf2gvgdeeE9S8VypHZXGkaPf2c9srnasr2k5leWHdw0iOAmCcHBA91/wCClP8AwU/8f/sqfFTw98Nvhb8GfEnxC8ceKojJZXlxaTrpOQCSkZjGbh0A3SAPGI1IJbrj0K6/4Kzfs1w/HLRfBkPxU8Haj4h16NY7O70+5W+smZnCpA15DuiR2Y8Izj8yAfhv/goR/wAFNfi18R/+CnS/s6+AfiPovwP8N6dcx6de+JL+GLdPO9uJ2dpZV+RfmWONUKbmPLkMMVey3A6T4Vf8F2fjJ8D/ANp/w/8ADn9qT4Q6T4FXxRLFFbajpMc9uLUSvsSYrJNOk8e8gMY5AU5OCRivMf8Ag53+LXxav7ix8H3ng/T4fg1Z31lfad4kW2lFxc6i1vLvgMvmmMqFZzgRA8feNfI//BULwXffDv8Aao8FaNq37R93+0XrFr5b3d45ZodALXC4tkb7TOm5sbmVSu35cjkY/ST/AIOfrOWf/gnv4PlRGaODxVaGRh/Dm1uAM/jU3bTTA5//AIIDftEftGaz4T+HvgfXPhrpFj8CbPRrs6d4qjsJ1urllZ2jBlNwYzmQsvEI6Y4PJ6z4/f8ABXj9orxn+0P4o+Hn7Pn7OepaxceDJfL1HUPFljcxeYOdriESQLEj4JjLTFpF5CjpXqn/AARU+N3hWD/gmL8N9Ot/EGi6hrmh6Bd3d1pNtexy30SRTyF8wqS4xuUcr1ZfUV8J/s+/t1fHD/grP8ZfHfm/tL6D+zd4T0OMXVjp0aQQzm3ZnA2OXhklKKoMjmb5SwwqggB3skB9g/8ABLf/AILQax+198ctZ+D/AMVvA8fgH4oaPHNIIrYSx2900J/fQtDMTJDIg+YAu4YAnIxz5d4y/wCCl2v6Z/wXmtfhOPhv8HpoY9atdAj8VS+H5G8Tx2stpHMyreefgfM7ADZtxxg9a+Rf+CT6xxf8F6LOOL4hXfxWSG51WP8A4S65DiTXitlKpn+eSRipIIU72yoBBwQK6n4if8rStv8A9jrp/wD6boKXM7fMLan1N/wVB/4Lg+Pv2B/2+9H+Hdjofgm78Btaabf6pd3thdzanHBNKwuDE0dyibhGpKAxnnrnpXc/8E5/+Cofxw/bT/aV1ZfE3wlt/h58F49FuNZ0/V9Q0y+iubiNWQRYu5HW3lBVizeXHgBeveviP/gtv4fs/Fn/AAXY+HOlahBHdafqZ8NWlzC4yssUl6VdSPQqSPxr9kP2zPCuqeKP2PPiZovh2Nv7WvfCuoWthFD8rGQ2zqirjuegAqle7A/P3xp/wXd+MH7TPxq1vwn+yb8GbXx/p/h1iLnWtYjmlhuUBIEgSOWBYUYqdnmSlnAztByB7N/wS5/4LGXn7ZnxZ1/4T/ErwX/wrv4seG45JZbJDILe9ETBZlEcn7yGRCQdjM+Vywbgivyb/wCCRfwd1P42ah4s8O6V+1ZrX7OGrQyRTLp0F3PZx68AGDMGS8t1aSPGChDMA2ema+0v+CZX7D3gHw9/wUxbxhp37Xmk/GL4heFnuP7XsJdNk+2a15ls0bMl5JdyfaAgYbmj8zbs2krUxlJ6hoeoftUf8Fpvixrf7YGvfBX9mb4VaZ8QPEPhEyJq19q3mSQs8RAmCRpLCERGITe8vzNwF6E/QX/BMP8AbE+NH7Vuj+K4fjB8H3+GOoeFbpLL7STPbx6nORudY7eYFwqKVPmCR1beMHrXw3+15/wTG0D4t/tz/EDxX+zr+0t4X8C/FCG+eXXfD91rM2lXOnXMqh5jDdW5MvlsTllEbBGLAvkbR0n/AAQl/bx+NHin9r/xr8B/iZ4s/wCFkWPhuwup4db+2rqJtZraeOJtt4Pmnik8zgyEsCoxjkVXM76h0P1sooorQkKKKKACiiigAooooAKKKKACiiigAooooAKKKKACiiigAooooAKKKKACiiigAooooAKKKKACiiigAooooAKKKKACiiigAooooAKKKKACiiigAooooAKKKKACiiigAooooAKKKKACiiigAooooAKKKKACiiigAooooAKKKKAPAf8AgqH/AMmLeOP+3D/04W1fkjoGqf2LrNvdeWs3ktu2E4zX72UV9jk/FFDC5RXyfFYf2tOtzKXvuN4zioOOiutE9U09dLNXPjc64Vq4zNaGbUMR7OdHl5fcUtYyck9Xbd7OLWmt9j8pfhX+1NNq3h6z8HHVLvwy11MIrXVvs8NwtnuJ/dyJJkNGScZG0rnrgYpvxX/amn0vw/eeD11S68TNaSmK51U28Nut5tI/dxpHgLGCMZ+Ytjrg4r9XKK/nOXg5krny6+z35Pn/AD39pa3u25r9b82p/R1HxKwMKiqvBNyS3dWN3L+fSilfrypct9o9D8D9f1T+29ZuLryhD577igOdv41+uP8AwS6/5MU8Df8Ab/8A+nC5r3+iv6DzLiChXyujlWGoezp0eVR95ytGEXFLVXenVtvTW71PznMs0ljJOc1q25N+bv2SXU4X9pn9n3Rv2qvgN4n+HfiK61Sz0XxZZmyu59OkSO6jQsrZjaRHUNlR1Uj2r4K/4hW/2e/+hx+Mv/g203/5Ar9L6K+VcU9zyT5n/YV/4JT/AAz/AGAfAnjDw14ZuvEvibR/HLJ/alv4mltbxJFVGj8sLHBEpRlchgwbNeI/FD/g2g/Zr+IvjOTVrFfHnhGGaQyPpuiavELLJOSALiCZ1B9FcAdBjjH6DUUcqA8h/Y//AGE/hf8AsKeCZ9D+G3hmHRo75le+vJJGuL7UHXoZZnJZgMnCjCLk4UZNcH+3H/wSN+Cv/BQLVYtX8baJf2PieGEWya9ot19kvzEOiPuV4pAOxkjYqOAQMivpqinyq1gPjv8AY2/4IX/AP9irx5b+KtF0vXPFXibT232OpeJryO7fT2/vRRxxxQhx2coWXsRzV79ub/giv8E/2/PHsXivxXa+ItB8UeWkNzqfh+9jtpr+NBhFmWWOWNsDjcED4wN2AAPrailyq1gufAfi7/g24/Zz8QxeFl03/hOPC7eF0P7zS9StzLqshkEnm3Tz28rO2RgBCiqOAor68/aN/Zh8F/tYfBfUPAPjrSRrPhzUVQPEZGilidDlJY3XBV1IyCPcHIJB9Aop8qA+M/2M/wDghX8FP2HvjMnjzwveePNU163SSK1/tbWEaC1SRSrqEgihEilSRtl3jocZANcz8Sv+Dcf9mz4l/GK48XSWHi7R47y4N1daFpmrLDpc7sdzfKYmmjViT8scqAfwgCvvKilyrYLs+PvgF/wRF+DX7M37XcPxi8G3Hi3StWtTN9l0RLq1/sa1WWEwlEjFuJcBSSMyk7uSTzVzWv8AgjX8MNd/b4T9oqbXvHi+No9Uh1YWSXtoNK82KFYVXyzbGXaVQEjzc5zyBxX1rRRyoD5P/aY/4I7/AAz/AGqf2vfD/wAavEOueOrPxT4bk0+S2tdOvbWPT3NnN5sW9HtnkOW4bEgyOmOtfWFFFVYD4l/ap/4N/wD9nf8Aar8eXnia60vxF4L1vU5jcX0/he+jtY7yQ9XaGaKWJWPUlEXJJJySTXqP7D//AAS0+Dn/AAT8iuJ/AOgXD69fReRda7qtx9r1GePrsD4VI1JwSsSIGwMg4GPomilyrcD4Z/aV/wCDeP8AZz/aT8eX3iRrDxV4J1TVLh7q+PhrUo4IbqVySzmKeKaNCSckRqozzjrXt37EH/BNr4T/APBPnQL61+Hehzw6hqqqmoavqFwbrUL5V5VWfAVVBOdkaouecZ5r3iilyrcAoooqgCiiigAooooAKKKKACiiigAooooAKKKKACiiigAooooAKKKKACiiigAooooAKKKKACiiigAooooAKKKKACiiigAooooAKKKKACiiigAooooAKKKKACiiigAooooAKKKKACiiigAooooAKKKKACiiigAooooAKKKKACiiigAoorjfix+0X8PfgKLP/hOvHfg3wX/aG77L/butW2nfadvXZ5zruxnnGcUAdlRXjX/Dxj9nv/ou3wa/8LXTf/j1em+AviJ4f+Knhe31zwvrmj+JNFvM+RqGl3sd5az4ODtljLK2DxwaANiiiigAooooAKKKKACiq9/qtrpfk/abiG3+0yrBF5jhfNkbOEXPVjg4A54qxQAUUUUAFFFFABRRRQAUUUUAFFFFABRRRQAUUUUAFFFFABRRRQAUUUUAFFFFABRRRQAUUUUAFFFFABRRRQAUUUUAFFFFABRRRQAUUUUAFFFFABRRRQAUUUUAFFFFABRRRQAUUUUAFFFFABRRRQAUUUUAFFFFABRRRQAUUUUAFFFFABRRRQAUUUUAFFFFABRRRQAUUUUAFFFFABRRRQAV+dP7fviXSvDf/BUjT5tW8bfD/wAER/8ACrIVhuvFng1/E1vMzatc7kiiWeHynIUEvk5C4x3r9Fq8I/aD/Y01j4ofHCw+I/gr4oeJvhh4ut9DPhu6uLDTbDUre+sfPNwqNDdwyKrrKzEOuDg4qZaoaPzt+EHxO8M237U3xiuJPjZ8A7O3uP7F8m+ufg/LcWeo7bRw32e3+3A2+w/K+WfzGIb5cYr6/wD+CKt9bah8G/i1JZatouuWbfFPWGgvtH0s6Xp9yrQWbF4LUu5hRmJITe2Mnk1e8M/8E6Pix4O+IXifxVpv7UnjK317xl9l/ti6/wCEM0F/tn2WIxQfI1sUTahI+RVz1OTzXtn7J/7McP7LfgXWNNbxHrHi7WPE2uXXiPW9Z1OOGKbUL642CRxHCiRxriNAEVcACpjF3Hc+Zf2oP2Kvg74l/wCClHw7n1r4c+Cb6PxR4d8S6vrjX1jH5epXMRsik9wxByV3v8xBwGNJpX7cHiP4gnxR4B1hfCuo6P4i+G+t65pN54f0HV7GzsUtokj8mO8vVWHU4mSdStxbLGBt5jAZSfsHxV8E/C/jfx/pXijVtJjvdc0Wwu9Ms55JpNsdtdhBcRmMN5bhxGgyykjHBGTngfA//BPb4R/Dm/W60rwvdJcR6Pd+HopLnXNQvGttOudgmtIvOnfy4f3a7UTCx87AuTmuV9APnvwL8ePiR8M/2f8A4R6H4oh8D3nhH4meB59OsINKjuF1LRp4NFe5RpZnkMd1G8cTBikMPlsyj5xyeb8Gft++LPhV8JPh74E8F6Sk154X+GGh69dGbwZrviM6xJPbsIrKM6ahWzyIDm4nLqC4AjbaxH1d8Ov2BPhN8Kr+O40TwvLC1rpUmiWaXGr315DplnIgSSG0jmmdLUOoAYwBC3UknmpPFX7B/wAK/GWjaFYXnhu5itvDulR6FafYtav7GSXT4xhbO4eGZGuoAP8AlnOZFOSSCSclmGh6J8NvFsvj74eaHrk+m3ujz6xYQXslheRtHcWTSRq5ikVgCGUkqQQDkdBW1VfStLttD0y3srO3htbOziWCCGJAkcMagBVUDgAAAADoBViqJPC/jF488aXMvhgXHgL7KsPiG1eA/wBtwP8AaJBv2pwPl3c8ngYr1TwF4i17xDDdNrnhz/hHWiKiFf7Qju/PBzk5QDbjjr1zVrxV4OtfGB037U06/wBl30WoQ+WwG6SPO0NkH5fmOQMH3rWoAKKKKACiiigAooooAKKKKACiiigAooooAKKKKACiiigAooooAKKKKACiiigAooooAKKKKACiiigAooooAKKKKACiiigAooooAKKKKACiiigAooooAKKKKACiiigAooooAKKKKACiiigAooooAKKKKACiiigAooooAKKKKACiiigAooooAKKKKACiiigAooooAwfif8N9G+L3gLUvDfiGx/tPR9UjEdza+c8PnAMGA3oysvzKOQRXx5efsvSahpU0U37KO9Z3MDxf8LOxuiL7C+RJ/c+bHXt1r7hrz7/hljwH/wALa/4Tr+wv+Kq+0favtv224/1mzy93l+Z5f3eMbcfjX0mQ59PAQnBylbdJOolzekKtO19Ly95qysj5/OsljjZQmoq+zbUG+X/t+nUvbWy91au7Oe0z9gf4T6dptvbw+E2hit41jSP+1r1tigAAZ87nHSivYqK4Xn2Zt3eIqf8Agcv8ztWS5elZUIf+AR/yCiiivJPTCioLnTLa9k3TW8EzAYBeMMQPxqP+wbH/AJ8rT/vyv+FAFuiqn9g2P/Plaf8Aflf8KP7Bsf8AnytP+/K/4UAW6Kqf2DY/8+Vp/wB+V/wo/sGx/wCfK0/78r/hQBboqp/YNj/z5Wn/AH5X/Cj+wbH/AJ8rT/vyv+FAFuiqn9g2P/Plaf8Aflf8KP7Bsf8AnytP+/K/4UAW6Kqf2DY/8+Vp/wB+V/wo/sGx/wCfK0/78r/hQBboqp/YNj/z5Wn/AH5X/Cj+wbH/AJ8rT/vyv+FAFuiqn9g2P/Plaf8Aflf8KP7Bsf8AnytP+/K/4UAW6Kqf2DY/8+Vp/wB+V/wo/sGx/wCfK0/78r/hQBboqp/YNj/z5Wn/AH5X/Cj+wbH/AJ8rT/vyv+FAFuiqn9g2P/Plaf8Aflf8KP7Bsf8AnytP+/K/4UAW6Kqf2DY/8+Vp/wB+V/wo/sGx/wCfK0/78r/hQBboqp/YNj/z5Wn/AH5X/Cj+wbH/AJ8rT/vyv+FAFuiqn9g2P/Plaf8Aflf8KP7Bsf8AnytP+/K/4UAW6Kqf2DY/8+Vp/wB+V/wo/sGx/wCfK0/78r/hQBboqp/YNj/z5Wn/AH5X/Cj+wbH/AJ8rT/vyv+FAFuiqn9g2P/Plaf8Aflf8KP7Bsf8AnytP+/K/4UAW6Kqf2DY/8+Vp/wB+V/wo/sGx/wCfK0/78r/hQBboqp/YNj/z5Wn/AH5X/Cj+wbH/AJ8rT/vyv+FAFuiqn9g2P/Plaf8Aflf8KP7Bsf8AnytP+/K/4UAW6Kqf2DY/8+Vp/wB+V/wo/sGx/wCfK0/78r/hQBboqp/YNj/z5Wn/AH5X/Cj+wbH/AJ8rT/vyv+FAFuiqn9g2P/Plaf8Aflf8KP7Bsf8AnytP+/K/4UAW6Kqf2DY/8+Vp/wB+V/wo/sGx/wCfK0/78r/hQBboqp/YNj/z5Wn/AH5X/Cj+wbH/AJ8rT/vyv+FAFuiqn9g2P/Plaf8Aflf8KP7Bsf8AnytP+/K/4UAW6Kqf2DY/8+Vp/wB+V/wo/sGx/wCfK0/78r/hQBboqp/YNj/z5Wn/AH5X/Cj+wbH/AJ8rT/vyv+FAFuiqn9g2P/Plaf8Aflf8KP7Bsf8AnytP+/K/4UAW6Kqf2DY/8+Vp/wB+V/wo/sGx/wCfK0/78r/hQBboqp/YNj/z5Wn/AH5X/Cj+wbH/AJ8rT/vyv+FAFuiqn9g2P/Plaf8Aflf8KP7Bsf8AnytP+/K/4UAW6Kqf2DY/8+Vp/wB+V/wo/sGx/wCfK0/78r/hQBboqp/YNj/z5Wn/AH5X/Cj+wbH/AJ8rT/vyv+FAFuiqn9g2P/Plaf8Aflf8KP7Bsf8AnytP+/K/4UAW6Kqf2DY/8+Vp/wB+V/wo/sGx/wCfK0/78r/hQBboqp/YNj/z5Wn/AH5X/Cj+wbH/AJ8rT/vyv+FAFuiqn9g2P/Plaf8Aflf8KP7Bsf8AnytP+/K/4UAW6Kqf2DY/8+Vp/wB+V/wo/sGx/wCfK0/78r/hQBboqp/YNj/z5Wn/AH5X/Cj+wbH/AJ8rT/vyv+FAFuiqn9g2P/Plaf8Aflf8KP7Bsf8AnytP+/K/4UAW6Kqf2DY/8+Vp/wB+V/wo/sGx/wCfK0/78r/hQBboqp/YNj/z5Wn/AH5X/Cj+wbH/AJ8rT/vyv+FAFuiqn9g2P/Plaf8Aflf8KKALdFFFADZJFiRmZlVVGSScACsNviBDcHNjY6lqkfaW3jRY2/3WkZAw91JFQeLV/wCEg1630l8/Y4ovtd2naYFiscZ/2SVckd9gHQmuP/aR+I+sfDPwFp8nh9dOXV9a1vTtCtZb6Jpre1N3dRwGVo1ZGfYrkhQy5IHOK9HB4P2tSFJayk9L6JX79fP07nBisX7KEqj+GO9tW/Tp5evY7b/hNrr/AKF3Wv8Av5af/H6P+E2uv+hd1r/v5af/AB+vIvFFj8TvBcNlJqnxa8C2a6jew6da7/A8ubi4lbbHGoGoZLE/kAScAEjqP2bfiRrHxL8BX0uvLp7axomt6jod1NYxNDb3TWl1JAJURmdk3KgJUs2CTziu2vlsYUPrEHGcbpae0W9/5lG+3S9upx0cwlOt7CalGVm9eR7W/lcrb9bHa/8ACbXX/Qu61/38tP8A4/R/wm11/wBC7rX/AH8tP/j9eR/Er9sO2+GH7VvhX4a32hyNa+KLRZhrIu8LazO8qRRNFs53tGF3bxyw4pdQ/bCtYf2ydP8AhFa6M129xYyXN3q32valnMsLTCDyth3ny9hJ3jHmDg1pHI8ZKKmqKs4Ope/2Fu/i6W23201REs6wqk4utqpqnt9t2svh6332310Z63/wm11/0Lutf9/LT/4/R/wm11/0Lutf9/LT/wCP1j+G/jD4R8ZT6lHo/inw5qsmjgtfpZ6lDO1iBnJlCsdmMH72OhqLSfjd4L17wtfa5Y+LvC97oumnbeahBqsElran0klViqdR1I61wvC1E7Oi9LdJdduvXp3OxYqm9VVXXrHpv06dexu/8Jtdf9C7rX/fy0/+P0f8Jtdf9C7rX/fy0/8Aj9c5o/x+8CeIbVp9P8beEb6GOSGJpLfWLeVVeZisKkq5G6RgQo6sQQM1r3nxA0HTpdWjuNb0iCTQY0m1NZLyNTpyOpZWmBP7tWUEgtgEDNKWFqRfLKi0/SXl5+a+9dxxxEJLmjVuvWPn5eT+5lz/AITa6/6F3Wv+/lp/8fo/4Ta6/wChd1r/AL+Wn/x+sK2+OHgu98Lw65D4v8LzaLcXH2SLUE1WBrWSbk+UsobaX4Pyg546Ve8I/Ejw74/Rm0HXtF1tViSdjYXsVyBG5YI52MflYowB6HacdDSlhqkU5SpWS0ektH56jjiISajGrdvVax1/Av8A/CbXX/Qu61/38tP/AI/R/wAJtdf9C7rX/fy0/wDj9eeR/tG+Z8CvGPjX+x/+RTm1SH7H9r/4+vsUskefM2fJv8vP3W25/ixzvXHx98GaRPZWmreK/DGj6perDtsLvVoIrgPKiuiBGYMWIZSBjJBBxzXRLLa8W17G7TadrvVWvs3tda7GMcwotJ+13Setlo723S3s9Nzpf+E2uv8AoXda/wC/lp/8fo/4Ta6/6F3Wv+/lp/8AH6yfFnxc8J+AtZs9O1zxP4e0XUNQx9ltb/UYbea5ycDYjsC3PHAPNc18Pf2m/DfjLxPqmh32paJouu2et3ej2mmz6pF9r1EQPt82OI7XIbn5QGxg8mop4GtOm6saPupXv723ffVd2tupU8bShUVKVX3npbTftto+19+h3f8Awm11/wBC7rX/AH8tP/j9H/CbXX/Qu61/38tP/j9ZknxT8MReN18Mt4j0FfEjrvXSTqEQvmXG7Ih3b8bec46c1TvPjb4Tj13UNFtvEnh688RabDJNLpEWpwm9XYpYhogxdeBzleKiOFqPal0vtLbvvt57FSxMFvV623jv2238tzf/AOE2uv8AoXda/wC/lp/8fo/4Ta6/6F3Wv+/lp/8AH65b4ZfG/SPH3gLw/q91dabo99ruix64dOlvkaW3tyis787S0aFsF9oHritHQvjD4R8U+GLzW9M8U+HNR0XTywur+11KGa1ttoyd8isVXAOTkjFOpg6sJOMqWzs/i3va1723WnfoKni6c0pRq7q622tfa19t+xsf8Jtdf9C7rX/fy0/+P0f8Jtdf9C7rX/fy0/8Aj9cV8M/2htF+LnxI13RdAutL1jTdGsLS9TVdP1FLuC5M7zqYxsBUFPJ5O453dBjnvIL2G5lmjjljkkt3CSqrAmJioYBh2O1lOD2IPeoxGHlQn7OtTs7J212aTXXs0Vh8RGtDnpVLq7V9N07Pp5MjtvHtr5yx3tve6W0jBUN2iiNieg3qWQE9gSM1uVhh7XXLGRQ1veW0heFwCJEYqSrqe3BBBHYgio/A00lk97pMkjy/2cytA7ncxgcEoCe+0q657hR3zXPUpxcXKKs1uvwOmnUkmlLVPZnQUUVg/EvxPceDfBN5qVqsUk1uY9qyAlTukVTnBHYmuU6Deooqh4p8QQ+FPDl9qU6s0VjC0xVfvPgcKPcnAHuaAL9Fc/4G8ex+KfBMer30K6PJF5iX0E0wYWMsbFZFZ8AEKVPzYAIwaq+Gvi5pPi7xFfWunXmnX2nWNjFenUba8SaFt7yqVyvyjb5WSd3foMcgHVUVzHhn4raX408Wyafo95p+qWsdkLs3lneJPHu8wxmP5cjIxnOfwrEuvjjHqfxD1Lw9o9x4Vkm0cwrdtea0IplZ3UMqwqjE4Dbcllw5Vcc5oA9Corh734/+H/DiM2vX+n6GratPpUJuryOMSmLrIS5XC9M9cEgZ5rpD450VfEEOknWNL/tW4j82Ky+1x/aJExncsedxXHcDFAGpRWbp/jHSNW1eTT7XVdNur6FWeS2iuUeZArbGJQHIAYFTkcEY61pUAFFFFABRRRQAUUUUAFFFFABRRRQAUUUUAFFFFABRRRQAUUUUAFFFFABRRRQAUUUUAFFFFABRRRQAUUUUAFFFFABRRRQAUUUUAFFFFABRRRQAUUUUAFFFFABRRRQAUUUUAFFFFABRRRQAUUUUAc1rDf2Z49ilk+WPVLRbZGPTzImdwv1KyMR/uGvNP20BNZ/DHQ9Ujs7++tvD/ivRdWvUsrZ7maO2gvonlkWNAXbaoLEKCcAntXs2taLb+INPa2uVLRsQwKna0bDkMpHIYHkEVinSde075IZNO1ONeA9w7W0uP9oqrqT7hV+letl+LjSr06+7i1o3a6Xn000/HU8vHYWVSlOj0knra9m/Lrrr/kfLPh348fDez+Nc3ifWPHnjPxDpenyz3Xh7S7zwfq7f2JPc/wDHw/mG2JkAGUiDD90kkiDIIx61+xgs918MNb1SSzvrG38QeK9a1eyS8tntpntp76Z4pGjcB13IQwDAHBB716Z5fiL/AKB2i/8Agzl/+R6PL8Rf9A7Rf/BnL/8AI9ermGaU69D2NOLV+XWU4PSN9Eowhq2223dt3b1bZ5uBy6pRre1qST+LaElrK2rcpT2SSS0SVktEkfP37TH7L+v/ABo+MPiTULO1WG3k8Ex2ukaj58amDVoL/wC0wALu3rjavzY24JGe1cl4L/Ze+Iml+NPA/izUdH02+8UXVr4j1PxK1xPE1rBf3tuqW1s6hyZIgESI+XuACnnByfq7y/EX/QO0X/wZy/8AyPR5fiL/AKB2i/8Agzl/+R63ocTY2lQWGjycqTWu9nFwavzdU07bcyT9ca3DuEqVnXfPzNp+V1JSWnL0at3s2j4z8B/sx/EbV/Ez3XiTwRcLpsngS+8P3Onrf6RpsDzyNGwt7b7CmY4T83ltL5hBB3bP4rh/Zu+KGp+ABFceHZNS0rw94n0nVbHQNbudLGqazaW0RSWGee1At5AGKeWZTkhDuI4FfYHl+Iv+gdov/gzl/wDkejy/EX/QO0X/AMGcv/yPXVPjDGSlzezpLba9lZ309/RvZtWduq0OaPCuFUeXnqPftrdW193W26T0v03PiC/+Hnif4q/Gj4z/ANi+DrfRNfsb/wALa5HoL3dsslyIHaQq0sbGFZZFUtneVBOCxrpfir+zn8TPjhffErWj4Zm8NPrWpaBqNhps2o2M82pQ2KuJYWOZYFkJKsBIGjLBQSwzX1XZeEb7TdevtVt/Dnha31TU1jS8vI7tluLtYwRGJHFtucKCQAxOAeKv+X4i/wCgdov/AIM5f/ketJ8XV4zjKhTgrKCV221yqndL39m6a3vKzetyI8L0ZQca05u7k9Fa/M6ln8O6VR7WV+lj5FX9kLxV4v02S41bw7rFx/bXjzR9V1Oz1q+0l3ms7aN0lneGzjjt0yGClFaRnCgkA5B+rPDlkuleKNRs7fw3BpWn29vbrBqEJhVL3/WZiCJ86iLj7wAPmHb3q95fiL/oHaL/AODOX/5Ho8vxF/0DtF/8Gcv/AMj14uZZxiMclGqopLZJ2S+FaLmfSKS6W+VvWy/KaGDblScm3u2rt79eXvJt+fzv4DrHw38c6Z8N/Hnw3s/Cc1/a+LtS1B7LxCuoWqWNtbX0jSO08bSC4EkXmONqROH2r8wycT+Mf2b9WvrH45Lb6Lb3lz4s0Oz03RJ3eESXphsPL25Lfu8TY+/tGcHoM17v5fiL/oHaL/4M5f8A5Ho8vxF/0DtF/wDBnL/8j1tHPsTF80FBNu713fNCV373VwWist7JdM5ZLh5K0nJ2VlpsrSjZe70U3vd7XZ4xo3g7xN8OPHfiqa48Av42t/GEViUu4r2zUWoito4XtroXEit5SujSAxLLnzG+XPXKvv2dtd/4V34uht9Bt11nV/iPH4hgZZYBJLapfwSCbfu4IhR8KSGAyMZOD755fiL/AKB2i/8Agzl/+R6PL8Rf9A7Rf/BnL/8AI9THPMRGSlFQT92+r15LWuua3RXslccsnoSTjJyt71tFpzXvZ8t+r3bPme2/Zq8Yp8Qr3TrxfF1xpd14zPiVL+1vdFg0tU88TJIzPbvqPnIoEewfKwXaJFQ8dh8GvBniTwP4As/BGo/D8yXGli8B8RreWbWd1I6y4uUBkNz50pcBg8a43t85A59o8vxF/wBA7Rf/AAZy/wDyPR5fiL/oHaL/AODOX/5HqsRn2Ir0/Z1Iwto9HbVJrm0ktbPXp5EUMkoUZ+0hKd9d1fRtO2sXpp6+Z8m+EP2TPHmg/s7614MuNNW51TxBo2nz/wBrtd25uLZ7byd+kzbi6GMBHWJkR4sO3mKSSz611+z34x8RrqXiK40XxTqF7Fe6PNJpPiPUNFjk1uCymeRohHp8SW67d/yNNI24qAwRQDX055fiL/oHaL/4M5f/AJHo8vxF/wBA7Rf/AAZy/wDyPXVLirGSlKbjTvJ3b6/Zul72iajFWXbSz1MI8N4WMVFSnZK1v/ArX93Vrmbu++t1oeXfBHwx4gn/AGg/HXi7VPB83hPT/EGnabb2qXF1azXNzJAbgSNKLeSRVYB0A+ZgV2/NnKq/4wfsyah4r8aS+IPBfiq88CaprkaWHiOWziV/7VtAMB1B4ju41+WOcDcqsQcgLj07y/EX/QO0X/wZy/8AyPR5fiL/AKB2i/8Agzl/+R68t5piFiPrFPli+VRtdONopJJqTlfZPW+qurWR6Ky2g6HsKnNJXcr2ad22204qNt2tLaOz3ZU+HXw70f4T+C9P8P6BZR6fpWmx+XDCmT1JLMxPLOzEszHJZiSSSau+DW/tLX9Y1CP5oGMVlG3Z/K3liPo0jL9VNNPh7WNaUx3txa6fbt99bJ2klcegkYLtz6hc+hHWt7T7CHSrKK2t41hghUIiKMBQK8uvWb5pTlzSlu9+t22+rbPSo0UuVQjyxjstulkkuiSJq8y+M3wQ0XVPC+rX1po8txq9xIkuYpZWZ2aVS5ChsdC3QcV6bRXCdhz/AIS+F2heBb2S40qx+yzTJ5bt50kmVyDjDMR1Aqn8VfC2peOINL0qzuLrT7OS7W4vb23MJkgWL541VZVdWLSBOqMMBs44rrKKAPJ9T+FOvaONYtYp7zxRZ3l1Z6zuv3tonuJopFEtviJI0G6OOMqSm0sDuPOai1rwVr3jbWfEmpf8I1/ZaahZacsdrd3MBkvjb3EkkkUvlO6ruQhQdzLhhk9QPXaKAOD8G6fqmqfFi81668OS6DaTaRFZr9ont3uJJFmdsOIXcABSMHceD2PFReIPBGqX2q+J5IrXcmoX+mTW58xB5iQtEZD14xtbg4JxxmvQaKAPNrjwrrWjadJdRaTPfzW/imbVFtYJoVlngbeoZS7qmfnBwzA4B78VgSfCnxDN40uoZZPEraffa0msb4JtMjsUAkV1Ds0TXfmKFC4UlSAAHQH5faKKAOW+E3hSbwloupR3FqltcXmr3t4cFWMiyTuyMSCeqbevIGBxjFdTRRQAUUUUAFFFFABRRRQAUUUUAFFFFABRRRQAUUUUAFFFFABRRRQAUUUUAFFFFABRRRQAUUUUAFFFFABRRRQAUUUUAFFFFABRRRQAUUUUAFFFFABRRRQAUUUUAFFFFABRRRQAUUUUAFFFFABRRRQAUUUUAFFFFABRRRQAUUUUAFFFFABRRRQAUUUUAFFFFABRRRQAUUUUAFFFFABRRRQAUUUUAFFFFABRRRQAUUUUAFFFFABRRRQAUUVUOv2KnBvbQEdR5y/40AW6KbDOlzEskbLIjdGU5B/GnUAFFFFABRRRQAUUUUAFFFNmmW3iaSRljjjBZmY4CgdSTQA6imwzLcRLJGyyRyAMrKchgehBp1ABRRRQAUUUUAFFFFABRRRQAUUUUAFFFFABRWNqvxG8PaFqq2N9r2jWd83S3nvY45T3+6WB/StkHcMigAooooAKKKKACio4byG5klSOWORoW2SKrAmNsA4PocEHB7EVJQAUU2aZbeJpJGWOOMFmZjgKB1JNEMy3ESyRsskcgDKynIYHoQaAHUUUUAFFFFABRRRQAUUUUAFFFFABRRRQAUUUUAFFFFABRRRQAUUUUAfPn7QPxzk8OfFeVrXxLbabbeBYrW4utMa8SJ9aeeUGWIITmTZbjcAAcM4713fxb+Nl14Fu7QaePDTWs1kb7ztS1UW5ugOkcMaqzkng7yAgyByeBsaX8DfDtlBra3FjFqcniC8uL27mvI0kkzLwUVsZVFUBVHYD15rN0/8AZ1sdJjsltdc8QW/2fSY9EuCksW6+tYyxRXYxkqw3sN0ZU4PXOCJ1GdZ4S8WL4v8AAmma7b202zVLCK/it8r5mJIw4TJIXdzjkgZ7ivnmDwLN4tuvh7daVJ/Z/iIx65r1vKSQVvjPETHP/f8AlZoJOvGcHhTX0V4O8Mw+CvCGlaNbSSyW+k2cNlE8pBd0jQIC2ABkhRnAFYvgj4T2vhN7aWeRb+602a9NhPsaJreG6lErxsAxVzuAG7A4A4HJLEeOeJ/izLrd/wCMNe02S40e6bw9pNnenIE+jsb+6hucnoHiBkO7p8obpXU/E34SeGvhDpGl6/4V0yz0PxCmr2FuLu0Xbc6sstxHFJFcOPmud0buT5hYgjf1Ga9Es/hJ4bsfE+vaxHpNr/aHiiGO31V2yyXyRqyqHjJKfdYgkDJHXOBWf4X+AXhbwfrdvqFnZXjzWWfsaXep3V5b6fldv+jwzSNHB8pK/ulXgkdOKBnk3wt8YRfA7xD401S/kmbRfEmsavdKCS2y+tp3XykH96aELhR1aFu7V1n7KWg33h/UvH8eqStNqt1rkd5etnIWeWxtpHRf9lS21f8AZUV3s/wm8O3WnJaTaXDNbx6p/bSJIzPtvPNMvmjJyDvJOOnOMY4qt4i8EatYy3l14Pv9D0PUdWuhdajNqemT6klyViWJdqJcwbCFRBkEjjpkk0rCM6b/AJOdt/8AsV5f/SuOub8B/DPw78bn8Q6t4u0mw8Qapb65e2MQv4hMdJjhlMcSwBs+QTGFk3JtZi+7J4x0V78DIvHH2G+8XahdXXiKzhktvt3h2/1Lw9G8LPuCGOG7ZiBhfvu3IyMZxVrXv2ffC3iPUPtVxa6lFcSRpFcPaaxeWh1BUXaoufKlX7T8vGZt5I4NMDy34cQL8VtZ8P8AhfxNcTa54ctLXVZbaG9cyx64tvffZ4Wn3H/SAkJBw+QxcOQSAR2njuPRf2dfhf4ibwzC1jJcCOGz0qwieeO0uJv3UZgtYgWUEncUiX5tjEKTnPYeI/hN4e8U6BY6bc6akNrpYAsDZyvZTafhdo8iWFkki+X5coy8cdKq6D8D/DPhxrR7bT5mns7z+0FuLi9nubiW48tohJLLI7PMwRmUeYzY4xjAwAeH+GfDfhHxT8GfHHg280GbVtP8I2c+paJ/wk3h+eC4ijmgdjIiXsSvuWYTDeo6FRmrXj7wx4P8LfCzwn4JsdCn0XTfFFsmp6uvhjw/cTzOsUKbZHSyiZ9zTGH52GCI2BPQV7zr3gDSfE+ovd31p51xJYTaY7iV032820yRkKQDnaMHqOcEZOX6N4F0vQNYbULS18u7ayh0/wAwyu+IIixjQBiQMF2OQMnPJOBgsB5P4S8eyfEi7+E+pXCzR34Oo219HNbyW8kdxFavHIGjkCuhLKTtYAgEZFcN+zJoWmxeIPh7/Zvg/wD4QnUmtJ7291cw2kP/AAlkQjZGRTbu7SnfIkp+0BHAXIUndj6Ht/hdoVr4jOrR2O3UDdSXvmCeTAmkhWF3C7to3RqoIxjIz1JNEPws0G30TRNOjsNlr4cmSfTQJpA9q6AgEPu3H5WZSCSGDEHIJFKwHi37OHwesdR8Iahfaj8Pfh3a2uqR6lC+uROJtUv1e5lBWdDaLhSBz+/f7o4Pb134FalPq3wa8MXFwswmbTYAzStuaXCACTPXDgBhuw2GGQDkDN0/9nzSfCUN9J4cu9a02+uop1hW61vUb/T7d5SxZhZyXPk/eYkBQuCeCK67wl4di8H+FdN0mB5JIdMtY7WN3+86ooUE+5xTQGhRRRTAKKKKACiiigAooooAKKKKACiiigAooooAKKKKAOF/abnkt/2fvFzRu0bf2ZKuVODgjB59wSK5Xxv4f+HWh3L6HovgvwZqHiprmKygsJdIhUqzp5nmvlMmFYwzs65B2Fc7uK9G+KHgkfEj4eazoJuPsn9rWj24m2b/ACiw4bbkZwccZGa4s+DviUddj1Rp/hnJqcUBtVvG0i68/wAokMU3ednaSM4HGaQy58E9Fs/C3j74haXptrb6fptrqlq8FrbxiOGEvY27PtQcLluTjvXN/tL+Df8AhOfix4Hsv+ET8JeMttpqUv2DxFN5VmuPsw8wH7PcfOM4A8vox+YdD3fwq8Car4Vute1LXL6xvtX8QXaXM/2K3aG3hCQxwoihmZj8qZJJ6mrPj/4R6L8TLqxuNU/taO500SC2n07WLzTJoxJt3rvtpY2KnavBJHAo6AcTq/ifxdovie68M+F7XwX4fsfDvh211IxS2c11DG7NOhtoljeACPEICvtG3+42cK1v2itSOjTSfYbKO+1rSdP1Hw7CwYieS6KxGKTDZby5mQsV2/I47gmvQNI+Guj6JLJJDDdSTTWEWmSzXN7PczTW8ZcorvI7MzAyOS5JY7uSeKiX4SeHUuPDc39mRmTwjGYtIZpHY2amMRkDLfN8oA+bPTPXmgRw2vfFzxdbaD4g8UWf/CN/8I74VuLi3ubCa2la91AW52zOk4lCQncH2I0UmQFyw3cX9Q+M2rWmv3+gLb6f/b0mrWsGloyPsmsp18wzuu7OY0juQcEAtEOm4Ct3VPgR4X1nxRJq9xp9wbieZbieBL+4jsrqVcbZJbVZBBK42r8zozfKOeBVfS/h7far8ZpPFmtWuk250yzk0zSFtZ3nleKRw7yylo02sdqqEXeFG87zuwADg/B/7T+ueK/G1v5Ol3s2j32oz6etsnhTVUa0SNpEFy+osv2SRS0YJRQoUPxIxXBr2ni/xL8VPCfw6bxVdaXZ6R46vIzcWmlxTW52C1mmFvJMZWLLK6ISqqnAZCXBJPqFl8D/AAzp/iptYhsbhbppXuFhN/cNZxTPnfKlsX8hJG3Nl1QMdx55NXJvhX4fuPAdt4Zl0yGbQ7OOOKC2kZn8kR48sq5O8MpAIcHcCAQc80ageceKvC2k/ADx7okvgvTdP0OPUrTUWvtLsYBBZ3CQ25lWdoUwodZAi7wAxEuCTxjofEnxLuJNO0m3mtdMuYda8M3up3MM0RdHaOOAhNpbmM+awIOcjHI72PDX7Oui+DvGv9t6fea8001o1jeRahqk+qLeQkkqpe6aWRArEnEbKDnBBwMWPDn7PHhHwrcmaz0+7aT7JNYI1xqd1deRbS7d8EfmyN5cfyLhEwq4+UCgDi/CN5441Tx/qUen694Y03Rl8L6fdWennQZ5EsmkW4C7dt4i4V0ycKNyBFG0rvNfw38SvGHhv4E+D5tQ8SeHbnW9atI51uD4fv76d4vJRsCzgmeWeTJ+eUSIoyDs5xXqEXws0S38S2OrxW91DfafZrp8Rivp0ieBchUkiDiOXbubaZFYruOCMmsiP9nLwnBpljZx2urQxabK8to0et3yS2wfaGiSQTB1gIVR5IPlYUDbxQBx3hj42eMvir/wjcegL4c0dtY8OvrFzNqVjcXHkyrMsWxYRLC21sn7zBk4yCcir/hb4veKfi3b6Pb+Hv8AhH9EvJNEttZv5dRtZb6PMzOiwxRpLC2MxSEyMxwNo2tk47nwn8KfD/gb7F/ZWni0/s6xOm2wE0jCK3L+YU+Zjn5hnJ57ZxxWfqHwA8K6hpel2gsr6zTR4PstpLYapd2VxHDkHyjNDKkjxkgEozFSeooA8/8AiT+0p4h8LeMtT02w02a5k8NwQNd21r4V1XVv7VneISNFFcWymK2wCoBlDkk5KqACfbrS4+1Wscux4/MQNscYZcjOCPUVyev/AAH8L+Jr+C4urC43QwpbPHBqFzbw3cScJHcRxyKlwoGQFmVxgn1NdgqhFCqMKOAB2pgFFFFABRRRQAUUUUAFcf8AHzxPfeEfhRql3pswtr6RoLOGcjP2Zp544PNx/seZu/4DXYVm+L/Ctl458MX2j6lH51jqMLQTKDg4PcHsR1B7EA0AeFeLrzS/gz8QdD+H9n8MbHxFD4mA2and3StJfMTid5i0LFmXlmJb7pBGBgD0H4KWreC/GHivwfBNNNpOhta3emiVzI1pFcLITb7jyVRomK55CuBk4FQr4f8AiRoUlvZ28ng/X47MFLTV9T86K8hUjBMkaKQ7EYBKMm7HIFdR8Nvh5/wgdpfS3F9Lq2saxP8AatRv5ECNcSbQoCqOEjVQFVQTgDqSSTIzzn9pfwb/AMJz8WPA9l/wifhLxlttNSl+weIpvKs1x9mHmA/Z7j5xnAHl9GPzDob2r+J/F2i+J7rwz4XtfBfh+x8O+HbXUjFLZzXUMbs06G2iWN4AI8QgK+0bf7jZwvbeP/hHovxMurG41T+1o7nTRILafTtYvNMmjEm3eu+2ljYqdq8EkcCrGkfDXR9ElkkhhupJprCLTJZrm9nuZpreMuUV3kdmZgZHJcksd3JPFMR5+37RWpHRppPsNlHfa1pOn6j4dhYMRPJdFYjFJhst5czIWK7fkcdwTTte+Lni620HxB4os/8AhG/+Ed8K3Fxb3NhNbSte6gLc7ZnScShITuD7EaKTIC5YbuO5X4SeHUuPDc39mRmTwjGYtIZpHY2amMRkDLfN8oA+bPTPXmqWqfAjwvrPiiTV7jT7g3E8y3E8CX9xHZXUq42yS2qyCCVxtX5nRm+Uc8CjUDz/AMW6vF4m8fLoElta6XpOseLFs9Sks4zbS6oq6Ulykc7qcsXfah6bkQIeCcv8d+H9L/Z18WaXdeCdM03Q1vNP1OW90uygEFlcrBbNMk7wx7VDLKqIXGGIlwSeMenav8LtA1+x1S3vdNhuodZuUvLtZGY75kRESRTnKMojTBTaQVBGDzXP+Hf2ctD8J+MjrFjd69JJcWb2F7DqOqT6qt7AckIz3TSyIFYk4jZQc4IOBgATxf8AESdJLXT5LXTbq31LwxfapcQzxl1dohAAhXODG3nOGBBzxyOc8r4RvPHGqeP9Sj0/XvDGm6MvhfT7qz086DPIlk0i3AXbtvEXCumThRuQIo2ld57bw3+z54T8J3DzWdheNM1nLpwe61O6umjtpNpaBDLIxSP5Fwq4C4+UDJzpRfCzRLfxLY6vFb3UN9p9munxGK+nSJ4FyFSSIOI5du5tpkViu44IyaYHlfh74neMPDPwO8HzX/iTw7da1rFkt0J/+Ed1C/uJIhFGdos7eZ5Zmy3zzB0Vcr8hzirvhz41+M/ip/YS+H18N6ONT8Lxa9PLqVlcXRilaQp5QjWWFtpweWIK45DZwOvi/Zu8IwWFlbR2urQx6a7tamPXL5JIFfbuhVxNuEB2L+4z5Xyj5OK2fCnwq0DwOtqul6etotjpyaTABNIwjtVYssfzMehJ5PPvS1A4Xwl8XfFXxiisB4b/AOEd0SRdGstWvW1K2lvhI9yHIhjWOWIoB5bZkYt1HyHBrI+Iv7S+veHfHmr6bpmm3N0vhvyUubS38K6rqj6rK8SyskV1br5NtgOoHmhyTyQgwT3t9+z14TvbHTbdbG+s10m1Wxt3sdVu7KU26/dhkkhlV5Yxz8khYcnjk1P4h+BnhjxRrMd9eWNx5yokUkcN/cW9veInCLcQxyLHcBRwBKrgDijUDwHxBo+m6h8TfFU6+C/7P13UPGFrb2njeSG1jGmsYbRhEZVc3SkgFApjEbNIFLYY13c/7TetXHxJurWx0u+utKs9aGjNZw+FNVuJJgJVikuf7QRfskaoxZihB+VOXUnA9SvfhfoOo6Nrenzaesln4ilM+oRmV/38hRE3A7soQqJgoRgqCMHmqMnwN8MzeKV1hrO6a6WVJ2j/ALRufsk0yY2zSW/meTJKNqkSOhfKg5yBQBxGp/HPxJ4euvF/9pLpljcaXYX15pmm3GkXUTSrBnZILsyGG6Vl2syRhHj3AH1qf9pfxlcN4I8UaJtt/s9x4PvdRc4PmB1KIAOcbSHbtnI612Fp8DfC9pq19ef2fNcPqEUsMkNzez3FtGkv+tWKCR2ihD/xeWq7u+aqad+zj4Q020voRp97cjUrF9MuJLzVbu7mktWIJh8yWVnCAj5QCNuTtxk5NRmb8NpvFk/xm8Ux32uaTdeH7OO1+z2KaZLHPDvi3LiU3DJxzu/dfMcEbcYPpVYcHw70q18at4gijuotUkt1tZCl7OsEqLnbvhD+UzAEgOyFgDgHFblMQUUUUAFFFFABRRRQBU/tqH+5d/8AgLL/APE0f21D/cu//AWX/wCJq3RQBU/tqH+5d/8AgLL/APE0f21D/cu//AWX/wCJq3RQBU/tqH+5d/8AgLL/APE0f21D/cu//AWX/wCJq3RQBU/tqH+5d/8AgLL/APE0f21D/cu//AWX/wCJq3RQBU/tqH+5d/8AgLL/APE0f21D/cu//AWX/wCJq3RQBU/tqH+5d/8AgLL/APE0f21D/cu//AWX/wCJq3RQBU/tqH+5d/8AgLL/APE0f21D/cu//AWX/wCJq3RQBU/tqH+5d/8AgLL/APE0f21D/cu//AWX/wCJq3RQBU/tqH+5d/8AgLL/APE0f21D/cu//AWX/wCJq3RQBU/tqH+5d/8AgLL/APE0f21D/cu//AWX/wCJq3RQBU/tqH+5d/8AgLL/APE0f21D/cu//AWX/wCJq3RQBU/tqH+5d/8AgLL/APE0f21D/cu//AWX/wCJq3RQBU/tqH+5d/8AgLL/APE0f21D/cu//AWX/wCJq3RQBU/tqH+5d/8AgLL/APE0f21D/cu//AWX/wCJq3RQBU/tqH+5d/8AgLL/APE0f21D/cu//AWX/wCJq3RQBU/tqH+5d/8AgLL/APE0f21D/cu//AWX/wCJq3RQBU/tqH+5d/8AgLL/APE0f21D/cu//AWX/wCJq3RQBU/tqH+5d/8AgLL/APE0f21D/cu//AWX/wCJq3RQBU/tqH+5d/8AgLL/APE0h163EgXbdbmBIH2aTJAxn+H3H51cqpN/yHbf/rhL/wChR0AH9tQ/3Lv/AMBZf/iaP7ah/uXf/gLL/wDE1Q8d/Erw78LdIj1DxPr+i+HLCaYW8dzql9FZwvKVZggeRgCxVWOAc4Unsa5L/hsX4R/9FU+HH/hS2X/xyuujl+Kqx56VOUl3UW1+By1cdh6UuSrUjF9m0n+J3n9tQ/3Lv/wFl/8AiaP7ah/uXf8A4Cy//E1z3gT49+Bfilq8mn+GPGnhPxHfwwm4kttL1e3vJkiDKpcpG5IUMyjJGMsB3FdZWNahVpS5KsXF9mmn+JtSrU6seelJSXdO6/Aqf21D/cu//AWX/wCJo/tqH+5d/wDgLL/8TVuisjQqf21D/cu//AWX/wCJo/tqH+5d/wDgLL/8TVuigCp/bUP9y7/8BZf/AImj+2of7l3/AOAsv/xNW6KAKn9tQ/3Lv/wFl/8AiaP7ah/uXf8A4Cy//E1booAqf21D/cu//AWX/wCJo/tqH+5d/wDgLL/8TVuigCp/bUP9y7/8BZf/AImj+2of7l3/AOAsv/xNW6KAKn9tQ/3Lv/wFl/8AiaP7ah/uXf8A4Cy//E1booAqf21D/cu//AWX/wCJo/tqH+5d/wDgLL/8TVuigCp/bUP9y7/8BZf/AImj+2of7l3/AOAsv/xNW6KAKn9tQ/3Lv/wFl/8AiaP7ah/uXf8A4Cy//E1booApnXrcSBdt1uYEgfZpMkDGf4fcfnS/21D/AHLv/wABZf8A4mib/kO2/wD1wl/9Cjo1rWoNBsTcXBbbkKAoyzH0FK9tWJySV2H9tQ/3Lv8A8BZf/iaP7ah/uXf/AICy/wDxNYn/AAtTT/8Anjef98L/APFUf8LU0/8A543n/fC//FVHtodzL6xT7m3/AG1D/cu//AWX/wCJo/tqH+5d/wDgLL/8TWJ/wtTT/wDnjef98L/8VR/wtTT/APnjef8AfC//ABVHtodw+sU+5t/21D/cu/8AwFl/+Jo/tqH+5d/+Asv/AMTWJ/wtTT/+eN5/3wv/AMVR/wALU0//AJ43n/fC/wDxVHtodw+sU+5t/wBtQ/3Lv/wFl/8AiaP7ah/uXf8A4Cy//E1if8LU0/8A543n/fC//FVt6LrUGvWIuLcttyVIYYZT6GnGpGTsmVGrCTtFh/bUP9y7/wDAWX/4mj+2of7l3/4Cy/8AxNW6Ks0Kn9tQ/wBy7/8AAWX/AOJo/tqH+5d/+Asv/wATVuigCp/bUP8Acu//AAFl/wDiaP7ah/uXf/gLL/8AE1booAqf21D/AHLv/wABZf8A4mj+2of7l3/4Cy//ABNW6KAKn9tQ/wBy7/8AAWX/AOJo/tqH+5d/+Asv/wATVuigCp/bUP8Acu//AAFl/wDiaP7ah/uXf/gLL/8AE1booAqf21D/AHLv/wABZf8A4mj+2of7l3/4Cy//ABNW6KAKn9tQ/wBy7/8AAWX/AOJpDr1uJAu263MCQPs0mSBjP8PuPzq5VSb/AJDtv/1wl/8AQo6AD+2of7l3/wCAsv8A8TRVuigAooooAK8X+CPxZ8QeL/2uvjT4X1HUPtGh+Ev7G/sm28iNPsn2i0aSb51UO+5gD85bHbAr2ivm/U/2e/GPhb9qfxd488I/F7wfoGm+MpNOGr6JqXhb+0JwLOPyisdyL+LYXUtyYm2kjg4wUB9IUUUUwCiiigAooooAKKKKACiiigAooooAKKKKACiiigAooooAKKKKACiiigAooooAKKKKACiiigAooooAKKKKACqk3/Idt/8ArhL/AOhR1bqpN/yHbf8A64S/+hR0AfH3/BcPS5Nc/Zc8JWMLQrNeeNbOCNppVhjDNaXqgs7EKq5PLMQAOSQK/OzR/wBij4gan+0BcfDebSfsGt2IM97cXD7bGytBy14833fs+35g465AALECv0l/4LQfDXxH8Uv2XdB0/wAMeH9a8R38Pim3uJLbS7GW8mSIWl4pcpGpIUMyjJGMsB3FfEGsaj+0/rn7P9v8N7jwJ8SG0G3xE0w8L3ovbi1XmOzkm8vc1ujFiqHpuxkqFA/pDw4x9elkFOnhqtOLcpp87s43atJK/vW193S7a95WZ+A8fYKjVzuc8RTqSSjBrkV07J3i9NL6e9raz913Pa/+CUPh3wb4R/4KBeLNL8C6xqHiHRdP8FywPqV1Esa31wt3YiaSFRyIS2SgbJx1J6n9Lq/Mn/gi/wDATx18Lf2ote1DxP4L8WeHLCbwtcW8dzqmkXFnC8pu7NggeRACxVWOAc4Unsa/TavzTxQlB53aFT2loQXNdO7S3bWl+9j9C8OYzWT3nDkvOT5bNW12V9beoUUUV+dH3gUUUUAFFFFABRRRQAUUUUAFFFFABRRRQAUUUUAFFFFABRRRQBUm/wCQ7b/9cJf/AEKOsT4qf8i9D/18L/6C1bc3/Idt/wDrhL/6FHWL8U1J8PRcfduFJ9vlasq3wMxxH8NnzP8AtS+NNc8Iw6CtrqniLw34cvJpl1jXdB0ddVvtNIQGHETwXCJEzbt8rQuFCjO0NvGz8J/ina6xb+HtJPiK38ZXWsaXPqltrljBFHa3tvFNHGCdjlfM/eoDsAUlXICcINT4n+FvF2utY3HhHxVY+Hby13rLFqWjf2pY3atj78aTQSh1x8pSZQNx3K3GOF0r9l7WvAyaDd+F/F9nYa5Yfb11K51DRPtlvqAvrlbq4McKTxGFhKuYzvdVBwyyda83Q8PW5rXf7U1jdWel/wBgeF/FnizU9Ut3vP7M0xLRLi0tkmMJmla4uIoVUurBV8wu+1tqttOLXiP9otNL1qHTdL8HeM/E2orZw3+o22mwWySaNDLu2Gf7RPEC52v+7iMknyk7cEE834c/Zf8AEnw00rQ5PCfji0tte07TRpF/d6zoZ1C11WATvMrtBHcQNHMrSSYdZNvznKN8oXa1j4MeLrDxdJrnhnxtp+m3+rWdtaa2NT0E6hFeNAGVZ4FjuIfImIcg7jJHgL8mQSTQNSTxN+1HpfhrxLeWn9g+Jr3SdHlit9Z1y3gg/s/RJZFRlSYPMs7ELJGWMUUioG+crg40PDXx6tvFfjzWNHtPD/iFtP0WWa1uNc22zaeLiIZkg2rMblWH954VRv4WbIz5n43/AOCenh3xh8aL3xZJYfDu8fWryDUNSuNZ8C2eq60JokiQG1vZWxCpWJfleGXaSxQpkY69f2bL65+PyeNbnWtFX7Gsy2r2Xh9LXV3WSN08i5vRKVuLdNwZIzApDRoWZiOXoGp0fwX+Ncfxs0mTUbXw94g0fTJESewvNQ+ymHVYHBKzQmCaUqDjlJRHIMjKCvdPhX/yL03/AF8N/wCgrXzf8C/2d7r4T+NvEGvX2paDdXmupHFImi6CNGhuNjMwuLlBNIJrpt2GmHlggABAK+kfhYpHh6Xj71wxHv8AKtbYf4zswV/aanS0UUV6B6wUUUUAFFFFABRRRQAUUUUAFFFFABRRRQAVUm/5Dtv/ANcJf/Qo6t1Um/5Dtv8A9cJf/Qo6ALdFFFABRRRQAUUUUAFFFFABRRRQAUUUUAFFFFABRRRQAUUUUAFFFFABRRRQAUUUUAFFFFABRRRQAUUUUAFFFFABRRRQAUUUUAFFFFABVSb/AJDtv/1wl/8AQo6t1Um/5Dtv/wBcJf8A0KOgC3RRRQAUUUUAFFFFABRRRQAUUUUAFFFFABRRRQAUUUUAFFFFABRRRQAUUUUAFFFFAFSb/kO2/wD1wl/9CjqzNAlzE0ciLIjcFWGQfwqtN/yHbf8A64S/+hR1boAp/wDCOaf/AM+Fn/34X/Cj/hHNP/58LP8A78L/AIVcoqeVdieWPYp/8I5p/wDz4Wf/AH4X/Cj/AIRzT/8Anws/+/C/4Vcoo5V2Dlj2Kf8Awjmn/wDPhZ/9+F/wo/4RzT/+fCz/AO/C/wCFXKKOVdg5Y9in/wAI5p//AD4Wf/fhf8KtQwJbRLHGixovAVRgD8KdRTslsNRS2CiiimMKKKKACiiigAooooAKKKKACiiigAooooAKqTf8h23/AOuEv/oUdW6qTf8AIdt/+uEv/oUdAFuiiigAoqp/aU3/AED7v/vqL/4uj+0pv+gfd/8AfUX/AMXQBboqp/aU3/QPu/8AvqL/AOLo/tKb/oH3f/fUX/xdAFuiqn9pTf8AQPu/++ov/i6P7Sm/6B93/wB9Rf8AxdAFuiqn9pTf9A+7/wC+ov8A4uj+0pv+gfd/99Rf/F0AW6Kqf2lN/wBA+7/76i/+Lo/tKb/oH3f/AH1F/wDF0AW6Kqf2lN/0D7v/AL6i/wDi6P7Sm/6B93/31F/8XQBboqp/aU3/AED7v/vqL/4uj+0pv+gfd/8AfUX/AMXQBboqp/aU3/QPu/8AvqL/AOLo/tKb/oH3f/fUX/xdAFuiqn9pTf8AQPu/++ov/i6P7Sm/6B93/wB9Rf8AxdAFuiqn9pTf9A+7/wC+ov8A4uj+0pv+gfd/99Rf/F0AW6Kqf2lN/wBA+7/76i/+Lo/tKb/oH3f/AH1F/wDF0AW6Kqf2lN/0D7v/AL6i/wDi6P7Sm/6B93/31F/8XQBboqp/aU3/AED7v/vqL/4uj+0pv+gfd/8AfUX/AMXQBboqp/aU3/QPu/8AvqL/AOLo/tKb/oH3f/fUX/xdAFuiqn9pTf8AQPu/++ov/i6P7Sm/6B93/wB9Rf8AxdAFuiqn9pTf9A+7/wC+ov8A4uj+0pv+gfd/99Rf/F0AW6Kqf2lN/wBA+7/76i/+Lo/tKb/oH3f/AH1F/wDF0AW6Kqf2lN/0D7v/AL6i/wDi6P7Sm/6B93/31F/8XQBbqpN/yHbf/rhL/wChR0f2lN/0D7v/AL6i/wDi6rS38p1m3b7DdZEMo27o8n5o+fv4/wD10AalFVP7Sm/6B93/AN9Rf/F0f2lN/wBA+7/76i/+LoAt0VU/tKb/AKB93/31F/8AF0f2lN/0D7v/AL6i/wDi6ALdFVP7Sm/6B93/AN9Rf/F0f2lN/wBA+7/76i/+LoAt0VU/tKb/AKB93/31F/8AF0f2lN/0D7v/AL6i/wDi6ALdFVP7Sm/6B93/AN9Rf/F0f2lN/wBA+7/76i/+LoAt0VU/tKb/AKB93/31F/8AF0f2lN/0D7v/AL6i/wDi6ALdFVP7Sm/6B93/AN9Rf/F0f2lN/wBA+7/76i/+LoAt0VU/tKb/AKB93/31F/8AF0f2lN/0D7v/AL6i/wDi6ALdFVP7Sm/6B93/AN9Rf/F0f2lN/wBA+7/76i/+LoAt0VU/tKb/AKB93/31F/8AF0f2lN/0D7v/AL6i/wDi6ALdFVP7Sm/6B93/AN9Rf/F0f2lN/wBA+7/76i/+LoAt0VU/tKb/AKB93/31F/8AF0f2lN/0D7v/AL6i/wDi6ACb/kO2/wD1wl/9Cjq3WXLfynWbdvsN1kQyjbujyfmj5+/j/wDXVn+0pv8AoH3f/fUX/wAXQBboqp/aU3/QPu/++ov/AIuj+0pv+gfd/wDfUX/xdAFuiqn9pTf9A+7/AO+ov/i6P7Sm/wCgfd/99Rf/ABdAFuiqn9pTf9A+7/76i/8Ai6P7Sm/6B93/AN9Rf/F0AW6Kqf2lN/0D7v8A76i/+Lo/tKb/AKB93/31F/8AF0AW6Kqf2lN/0D7v/vqL/wCLo/tKb/oH3f8A31F/8XQBboqp/aU3/QPu/wDvqL/4uj+0pv8AoH3f/fUX/wAXQBboqp/aU3/QPu/++ov/AIuj+0pv+gfd/wDfUX/xdAFuiqn9pTf9A+7/AO+ov/i6P7Sm/wCgfd/99Rf/ABdAFuiqn9pTf9A+7/76i/8Ai6P7Sm/6B93/AN9Rf/F0AW6Kqf2lN/0D7v8A76i/+Lo/tKb/AKB93/31F/8AF0AW6Kqf2lN/0D7v/vqL/wCLo/tKb/oH3f8A31F/8XQBbqpN/wAh23/64S/+hR0f2lN/0D7v/vqL/wCLqtLfynWbdvsN1kQyjbujyfmj5+/j/wDXQBqUVU/tKb/oH3f/AH1F/wDF0UAW6KKKACiivz/+MP7R/jCb/goD46+Ddn4n1zwxpvjzUdF06DxDNdyLa+H4f7PkmntrEklYb+624j4UZDvkuiqU3YD9AKK8T+Hus6fpn7aPiTwraWevSXmh+DNIllv73xJd3cM8Ek96iAWshZBMGgy0+4ySCT5j8vze2UwCiiigAooooAKKKKACiiigAooooAKKKKACiiigAooooAKKKKACiiigAooooAKKKKACiiigAooooAKKKKACqk3/ACHbf/rhL/6FHVuqk3/Idt/+uEv/AKFHQBxf7RP7UHgn9lPwpputeOdUvNM0/WNRXSbM2mk3mpzXFy0M04jWK1ilk/1UEzFtu0BDkjjPk3/D3v4Df9DB4y/8N54j/wDkCj/got/yO37Mv/ZZdO/9NOr19MVOtwPGvgH+398K/wBpr4hSeFfB+uazea9Hp0urG1v/AAzquk77aKSGKSRXu7aJG2vcQgqrFv3gOMZI9lr5n1z/AJTG+F/+yNax/wCnvS6+mKaAKKKKYBRRRQAUUUUAFFFFABRRRQAUUUUAFFFFABRRRQAUUUUAFFFFAFSb/kO2/wD1wl/9Cjqv4s8TR+FNK+1SRtKWcRogONxOT17cA1Ym/wCQ7b/9cJf/AEKOud+Mn/IsW/8A19L/AOgPWlGKlNJmNeTjTckUP+F2/wDUM/8AJj/7Gj/hdv8A1DP/ACY/+xr49/bN8TaPo3xN8B2/ia++Itt4bms9UuLiHwhNra3MksYtzG8i6SfPMahpOX/dgsM8kVgW37aCfAj4ZeDdP8Qa54PbWfElvd6pp114x8YQaJA+lLcYtt90UlM1yYZIflVGyQxd16n11gqbWi/M8X6/W7/l/kfcP/C7f+oZ/wCTH/2NH/C7f+oZ/wCTH/2NfH99+1joVx4WPxK0TQbrXJJPBq6rbrFrGEuYzdiM26qC0BbzMkTDOQAM7TmtLxj8ar7UND8XaD448HwWFxpdnZapHb6Z4jmkS8tprkxpunWGGSGVJIzuRQykYAdgThfUqfb+vvD69V/m/Bf5H1d/wu3/AKhn/kx/9jXU+E/E0fivSvtUcbRFXMboTnaRg9e/BFfI3wM+IXj7xf8AFT4had4l0fwzZ6DoGqiz0y4sdalurog29vIqPE1pEoDLIXLeaxVmKAMqiQ/T/wAG/wDkWLj/AK+m/wDQErmxWHhCF4o68Hiqk6nLJ6HW0UUV5x6oUUUUAFFFFABRRRQAUUUUAFFFFABRRRQAUUUUAFVJv+Q7b/8AXCX/ANCjq3VSb/kO2/8A1wl/9CjoAt0UUUAFFFFABXhPxO/Yz8AfFG++JLa2PFFxN8SDYm9eKF1bSp7FCltc2Uiw7opkbDhyz/MoI4yD7tRQB5d8OPgzpfgf4tSeKk1Lxhr3iDVtBsfDd5d6nCiJJDZm4lS4k2wRDzXaZwxX5SSuEXk16jRRQAUUUUAFFFFABRRRQAUUUUAFFFFABRRRQAUUUUAFFFFABRRRQAUUUUAFFFFABRRRQAUUUUAFFFFABRRRQAVUm/5Dtv8A9cJf/Qo6t1Um/wCQ7b/9cJf/AEKOgD5//wCCinw/8beLdP8AhBrXgbwfeeOdQ8A/ES18S3mlWmoWdjNLbRadqMJKyXUsUf8ArZ4VPzFgGJCnBql/w138ef8Ao0vxl/4Xfhz/AOS6+mKKVgPk74I6b8VPi1/wUJ0/4keMPhDrPwz0HSfh3qPhoPf6/pWpfabmbUtPuYwotLiRxlIZslkCjYPmJYCvrGiihKwBRRRTAKKKKACiiigAooooAKKKKACiiigAooooAKKKKACiiigAooooAqTf8h23/wCuEv8A6FHWB8XraS58LRmNGYRXCu+B90bWGfzIrfm/5Dtv/wBcJf8A0KOrdVTlyy5jOpT54OPc+adX+HtlrXxA0XxJNJdLfaHbXVrBGrL5LrceVvLjGSR5S4wR1Oc8Y4dv2TtO0ry5PDvijxb4Tu7aa5NtcabJaO1rbXEqyyWSJcW8sfkeYu5QyF49xCOowB9nUV3/ANoPt+P/AADzv7M/vfh/wT5F8T/s2aL4t0iSzvNQ16RZtHTRXme8E07xLMs29nkVmaQsvLEkYJ4FXPG3wH0fx5ruraheXGpRzazpttpcywyIqrFBO86FcoSGLOQSSRjGADzX1dRR/aD7fj/wA/stfzfh/wAE+XfDXwsj8K/EjXvEVrrGsNF4i2SXOlSGBrFJ1jji+0IfK84OY4kUgylMDIQEk17x8IbaS28LSGRGUS3DOmR94bVGfzBrqqKxrYr2keWxvh8H7KXNe4UUUVyHcFFFFABRRRQAUUUUAFFFFABRRRQAUUUUAFFFFABVSb/kO2//AFwl/wDQo6t1Um/5Dtv/ANcJf/Qo6ALdFFFABRRRQAUUUUAFFFFABRRRQAUUUUAFFFFABRRRQAUUUUAFFFFABRRRQAUUUUAFFFFABRRRQAUUUUAFFFFABRRRQAUUUUAFFFFABVSb/kO2/wD1wl/9Cjq3VSb/AJDtv/1wl/8AQo6ALdFFFABRRRQAUUUUAFFFFABRRRQAUUUUAFFFFABRRRQAUUUUAFFFFABRRRQAUUUUAVJv+Q7b/wDXCX/0KOrdVJv+Q7b/APXCX/0KOrdABRRRQAUUUUAFFFFABRRRQAUUUUAFFFFABRRRQAUUUUAFFFFABRRRQAUUUUAFVJv+Q7b/APXCX/0KOrdVJv8AkO2//XCX/wBCjoAt0UUUAVPOvv8An3tP/Alv/iKPOvv+fe0/8CW/+Iq3RQBU86+/597T/wACW/8AiKPOvv8An3tP/Alv/iKt0UAVPOvv+fe0/wDAlv8A4ijzr7/n3tP/AAJb/wCIq3RQBU86+/597T/wJb/4ijzr7/n3tP8AwJb/AOIq3RQBU86+/wCfe0/8CW/+Io86+/597T/wJb/4irdFAFTzr7/n3tP/AAJb/wCIo86+/wCfe0/8CW/+Iq3RQBU86+/597T/AMCW/wDiKPOvv+fe0/8AAlv/AIirdFAFTzr7/n3tP/Alv/iKPOvv+fe0/wDAlv8A4irdFAFTzr7/AJ97T/wJb/4ijzr7/n3tP/Alv/iKt0UAVPOvv+fe0/8AAlv/AIijzr7/AJ97T/wJb/4irdFAFTzr7/n3tP8AwJb/AOIo86+/597T/wACW/8AiKt0UAVPOvv+fe0/8CW/+Io86+/597T/AMCW/wDiKt0UAVPOvv8An3tP/Alv/iKPOvv+fe0/8CW/+Iq3RQBU86+/597T/wACW/8AiKPOvv8An3tP/Alv/iKt0UAVPOvv+fe0/wDAlv8A4ijzr7/n3tP/AAJb/wCIq3RQBU86+/597T/wJb/4ijzr7/n3tP8AwJb/AOIq3RQBU86+/wCfe0/8CW/+Io86+/597T/wJb/4irdFAFTzr7/n3tP/AAJb/wCIo86+/wCfe0/8CW/+Iq3RQBU86+/597T/AMCW/wDiKrSzXn9s2/8Ao9ru8mXA89sEbo887PpWpVSb/kO2/wD1wl/9CjoAPOvv+fe0/wDAlv8A4ijzr7/n3tP/AAJb/wCIrzr9rL9rLw7+xx8ObLxP4nstavrC+1JNLjj0uGKWYSvFLKCRJJGNu2FhkEnJHHUj56/4fufCP/oXfiP/AOAFl/8AJVfQ5bwnm+YUfrGDoSnC9rra63PCzDibK8DW9hi68YS3s97M+yvOvv8An3tP/Alv/iKPOvv+fe0/8CW/+IrwX9k3/gpT4F/bH+I174Y8MaT4ssb+x019Ukk1S1t4oTEksURAMc8h3bplOCAMA89AfoWvNzLK8Xl9b6vjIOE7J2e9nsehl+ZYbHUfb4SanHa62uip519/z72n/gS3/wARR519/wA+9p/4Et/8RVuiuA7Sp519/wA+9p/4Et/8RR519/z72n/gS3/xFW6KAKnnX3/Pvaf+BLf/ABFHnX3/AD72n/gS3/xFW6KAKnnX3/Pvaf8AgS3/AMRR519/z72n/gS3/wARVuigCp519/z72n/gS3/xFHnX3/Pvaf8AgS3/AMRVuigCp519/wA+9p/4Et/8RR519/z72n/gS3/xFW6KAKnnX3/Pvaf+BLf/ABFHnX3/AD72n/gS3/xFW6KAKnnX3/Pvaf8AgS3/AMRR519/z72n/gS3/wARVuigCp519/z72n/gS3/xFHnX3/Pvaf8AgS3/AMRVuigCp519/wA+9p/4Et/8RR519/z72n/gS3/xFW6KAMuWa8/tm3/0e13eTLgee2CN0eedn0qz519/z72n/gS3/wARRN/yHbf/AK4S/wDoUdUvHHid/Cmi/aI41kkkkEaBvugkE5P5GnGLk7ImUlGPMy7519/z72n/AIEt/wDEUedff8+9p/4Et/8AEV5//wALk1T/AJ97D/vh/wD4qj/hcmqf8+9h/wB8P/8AFV0/U6hy/X6R6B519/z72n/gS3/xFHnX3/Pvaf8AgS3/AMRXnX/C87z7d9lxpf2nZ5vlfN5mzON23fnGeM9M0X3xzvNMtWmuRpdvCmN0ku5FXJwMkvjqcUfU6gfX6R6L519/z72n/gS3/wARR519/wA+9p/4Et/8RXn/APwuTVP+few/74f/AOKrs/A/id/Fei/aJI1jkjkMbhfukgA5H5is6mHnBXkaUsVTqS5Yl3zr7/n3tP8AwJb/AOIo86+/597T/wACW/8AiKt0VidBU86+/wCfe0/8CW/+Io86+/597T/wJb/4irdFAFTzr7/n3tP/AAJb/wCIo86+/wCfe0/8CW/+Iq3RQBU86+/597T/AMCW/wDiKPOvv+fe0/8AAlv/AIirdFAFTzr7/n3tP/Alv/iKPOvv+fe0/wDAlv8A4irdFAFTzr7/AJ97T/wJb/4ijzr7/n3tP/Alv/iKt0UAVPOvv+fe0/8AAlv/AIijzr7/AJ97T/wJb/4irdFAFTzr7/n3tP8AwJb/AOIo86+/597T/wACW/8AiKt0UAVPOvv+fe0/8CW/+IqtLNef2zb/AOj2u7yZcDz2wRujzzs+lalVJv8AkO2//XCX/wBCjoAPOvv+fe0/8CW/+Ioq3RQAUUUUAFfmj/wVm/aU8IXv7SM2l3/jrRfDOufAXQIfGXh+zvNRW1bVtfknWSKBQSN+LSCRCuCP9NHfGP0urifBnwu0H4Z674rvtF8L3kN54z1JtU1q5Nysx1K48tId582YlVEcaKqAKqgYCjmlJXBHiesftb+PvjD8S/CekfCeTwJDoviv4d/8JvFquvWdzeeS5mRI4vKhni3qwfB+ZShBOW+6eD+IP/BSzxlH+zt4W8baFH4JsdSuPB48VaroT6PrPiG9lcFlaILYoPsNsxjkC3lwXUEEGPCs1fRPwt/Zp8E/Ba70+bwz4K1LTZNK0ubRLT/iYtMtvZS3BuXgVZLhgF81iw4yowqkKAtcprX/AAT8+EfiDR7DT7n4d6t9g0/Rj4eFtFr1zDFdafl2Ftcql2BdIrSOy+fvKFiVweaWo9D2b4b+LY/H3w80HXYYGtYta063v0hJyYVliVwpPtux+FbVZ/hTQLPwn4W03S9Ptms7DTbWK1trdnLmCKNAqIWJJOFAGSTnHU9a0KoQUUUUAFFFFABRRRQAUUUUAFFFFABRRRQAUUUUAFFFFABRRRQAUUUUAFFFFABRRRQAUUUUAFFFFABVSb/kO2//AFwl/wDQo6t1Um/5Dtv/ANcJf/Qo6APj7/guHFaz/sueEkvpprexfxrZrcSwxCWSKM2l7uZUJUMwGSAWGTxkda+N4/8Agnvpnh/xFJ4u1jxhZt8CYbddTh8UWzL9o1SJiQllDCfmF6WVkZCMIQWPZT+h/wDwUp/ZN8R/tj/AvSfDHhi90Wxv7HXodUkk1SaWKExJb3ERAMcch3bplOCAMA89Afi6X/giT8bpvD0OkP4y8CtpNvO11FZnVr828czKFaQJ9l2hiqqC2MkACv3rgTiDB4bJaeHnjo0Jc0+ZNXfK2tY9paaN3jq7xeh+KcaZHisRm868cHKtHljytOyur6PvHXVKz0VpLU6j/glD8R9F+KP/AAUC8Wal4c8L6f4Q0GHwXLZ2GnWo+ZYYruxVHmbP7yZgAXfufXqf0ur4h/4Jrf8ABNbx1+xx8dNW8T+J9W8J31hfaDNpccel3VxLMJXuLeUEiSCMbdsLDIJOSOOpH29XwHiLjMFic358vnz01CKTu3surerfds+34DwmMw+V8uOhyVHOTaslu+y0S8kFFFFfCH2gUUUUAFFFFABRRRQAUUUUAFFFFABRRRQAUUUUAFFFFABRRRQBUm/5Dtv/ANcJf/Qo6534yf8AIsW//X0v/oD10U3/ACHbf/rhL/6FHWN8UdIuNY8NqttE00kM6yFVGWIww4HfqK1w7tUTZjiU3SkkfDf7auh6Pr3xi+HceufC+T4uWcNhq8w0NLPTrpkdRa4nCX80UWV5GVYyfP8AKp5xyvhv9orVfhL8NvA3hzQriSRtesb3XoruHwhrPi2LTbP7X+5sBBYASqY1lEXmSsip5O0Kx+UfW1/8JG1PxXp2uT6LfyappMM1vaTeXKPKSbZ5g2j5Tu8tOSCRjjGTnkdc/Yy8O69G27w74gsJGvZ78T6XqWoabcRyzsrThJbeWN0jkZQzxKwjdskqSST7sasLWZ877Kd7pHkHif8AaR1qz8FTeMrXwdpWneKh4KXUUi1fT57W7SU3oi+zyF1SdICTvCMisMgkZ4rT8a/E7xRodt4y8O+NLPwT4mfT9N0/WLUQ6VLHZmOe7aEwTQyzS+Y0bR7hKGQMSD5a459cv/2WNE1HRv7Pk8J3S2I01NIEMSzxItqsgkWMBSMfOAdw+Y9zV7xJ+z1Y+LtUv7zUPDt/cXOp2cNhcvidPMgilaaNMKQBiRmORgnOCSOKPaQD2c+x5t+z/ceO7r4u/ExfEnibQdW0HT9aFtp1la6LPaT2YNpayoPNe7lUoEcgqIl3SFnBUN5Y+qPg3/yLFx/19N/6AleRaP8AASHQPH+qeJrPR9ch1bWo0jvcXF2bWfaFUP8AZi3kCTaiKZAgcqoBYgYr2b4XaRcaP4bZbmJoZJp2kCsMMBhRyO3Q1x4ycXDQ7sBCSq6o6SiiivJPaCiiigAooooAKKKKACiiigAooooAKKKKACiiigAqpN/yHbf/AK4S/wDoUdW6qTf8h23/AOuEv/oUdAFuiiigAooooAKKKKACiiigAooooAKKKKACiiigAooooAKKKKACiiigAooooAKKKKACiiigAooooAKKKKACiiigAooooAKKKKACiiigAqpN/wAh23/64S/+hR1bqpN/yHbf/rhL/wChR0AW6KKKACiiigAooooAKKKKACiiigAooooAKKKKACiiigAooooAKKKKACiiigAooooAqTf8h23/AOuEv/oUdW6qTf8AIdt/+uEv/oUdW6ACiiigAooooAKKKKACiiigAooooAKKKKACiiigAooooAKKKKACiiigAooooAKqTf8AIdt/+uEv/oUdW6qTf8h23/64S/8AoUdAFuiiigAoqp5N9/z8Wn/gM3/xdHk33/Pxaf8AgM3/AMXQBboqp5N9/wA/Fp/4DN/8XR5N9/z8Wn/gM3/xdAFuiqnk33/Pxaf+Azf/ABdHk33/AD8Wn/gM3/xdAFuiqnk33/Pxaf8AgM3/AMXR5N9/z8Wn/gM3/wAXQBboqp5N9/z8Wn/gM3/xdHk33/Pxaf8AgM3/AMXQBboqp5N9/wA/Fp/4DN/8XR5N9/z8Wn/gM3/xdAFuiqnk33/Pxaf+Azf/ABdHk33/AD8Wn/gM3/xdAFuiqnk33/Pxaf8AgM3/AMXR5N9/z8Wn/gM3/wAXQBboqp5N9/z8Wn/gM3/xdHk33/Pxaf8AgM3/AMXQBboqp5N9/wA/Fp/4DN/8XR5N9/z8Wn/gM3/xdAFuiqnk33/Pxaf+Azf/ABdHk33/AD8Wn/gM3/xdAFuiqnk33/Pxaf8AgM3/AMXR5N9/z8Wn/gM3/wAXQBboqp5N9/z8Wn/gM3/xdHk33/Pxaf8AgM3/AMXQBboqp5N9/wA/Fp/4DN/8XR5N9/z8Wn/gM3/xdAFuiqnk33/Pxaf+Azf/ABdHk33/AD8Wn/gM3/xdAFuiqnk33/Pxaf8AgM3/AMXR5N9/z8Wn/gM3/wAXQBboqp5N9/z8Wn/gM3/xdHk33/Pxaf8AgM3/AMXQBboqp5N9/wA/Fp/4DN/8XR5N9/z8Wn/gM3/xdAFuqk3/ACHbf/rhL/6FHR5N9/z8Wn/gM3/xdVpYrz+2bf8A0i13eTLg/Z2wBujzxv8ApQBqUVU8m+/5+LT/AMBm/wDi6PJvv+fi0/8AAZv/AIugC3RVTyb7/n4tP/AZv/i6PJvv+fi0/wDAZv8A4ugC3RVTyb7/AJ+LT/wGb/4ujyb7/n4tP/AZv/i6ALdFVPJvv+fi0/8AAZv/AIujyb7/AJ+LT/wGb/4ugC3RVTyb7/n4tP8AwGb/AOLo8m+/5+LT/wABm/8Ai6ALdFVPJvv+fi0/8Bm/+Lo8m+/5+LT/AMBm/wDi6ALdFVPJvv8An4tP/AZv/i6PJvv+fi0/8Bm/+LoAt0VU8m+/5+LT/wABm/8Ai6PJvv8An4tP/AZv/i6ALdFVPJvv+fi0/wDAZv8A4ujyb7/n4tP/AAGb/wCLoAt0VU8m+/5+LT/wGb/4ujyb7/n4tP8AwGb/AOLoAt0VU8m+/wCfi0/8Bm/+Lo8m+/5+LT/wGb/4ugC3RVTyb7/n4tP/AAGb/wCLo8m+/wCfi0/8Bm/+LoAJv+Q7b/8AXCX/ANCjq3WXLFef2zb/AOkWu7yZcH7O2AN0eeN/0qz5N9/z8Wn/AIDN/wDF0AW6KqeTff8APxaf+Azf/F0eTff8/Fp/4DN/8XQBboqp5N9/z8Wn/gM3/wAXR5N9/wA/Fp/4DN/8XQBboqp5N9/z8Wn/AIDN/wDF0eTff8/Fp/4DN/8AF0AW6KqeTff8/Fp/4DN/8XR5N9/z8Wn/AIDN/wDF0AW6KqeTff8APxaf+Azf/F0eTff8/Fp/4DN/8XQBboqp5N9/z8Wn/gM3/wAXR5N9/wA/Fp/4DN/8XQBboqp5N9/z8Wn/AIDN/wDF0eTff8/Fp/4DN/8AF0AW6KqeTff8/Fp/4DN/8XR5N9/z8Wn/AIDN/wDF0AW6KqeTff8APxaf+Azf/F0eTff8/Fp/4DN/8XQBboqp5N9/z8Wn/gM3/wAXR5N9/wA/Fp/4DN/8XQBboqp5N9/z8Wn/AIDN/wDF0eTff8/Fp/4DN/8AF0AW6qTf8h23/wCuEv8A6FHR5N9/z8Wn/gM3/wAXVaWK8/tm3/0i13eTLg/Z2wBujzxv+lAGpRVTyb7/AJ+LT/wGb/4uigD/2Q==;strokeWidth=4;imageBorder=default;" vertex="1" parent="1">
          <mxGeometry x="-31" y="1050" width="423.26" height="210" as="geometry" />
        </mxCell>
        <mxCell id="rOULUGVn5ljh-n2T-rPm-108" value="" style="group" vertex="1" connectable="0" parent="1">
          <mxGeometry x="650" y="-190" width="568.71" height="144" as="geometry" />
        </mxCell>
        <mxCell id="rOULUGVn5ljh-n2T-rPm-75" value="" style="group" vertex="1" connectable="0" parent="rOULUGVn5ljh-n2T-rPm-108">
          <mxGeometry width="158.71" height="142" as="geometry" />
        </mxCell>
        <mxCell id="rOULUGVn5ljh-n2T-rPm-69" value="" style="rounded=1;whiteSpace=wrap;html=1;fillColor=#F5F5F5;strokeWidth=4;" vertex="1" parent="rOULUGVn5ljh-n2T-rPm-75">
          <mxGeometry width="158.71" height="142" as="geometry" />
        </mxCell>
        <mxCell id="rOULUGVn5ljh-n2T-rPm-42" value="" style="shape=image;imageAspect=0;aspect=fixed;verticalLabelPosition=bottom;verticalAlign=top;image=data:image/svg+xml,PHN2ZyB4bWxucz0iaHR0cDovL3d3dy53My5vcmcvMjAwMC9zdmciIHZpZXdCb3g9IjAgMCAyNTYgMjY4IiBoZWlnaHQ9IjEyOCIgd2lkdGg9IjEyMi4yNyI+PHBhdGggZD0iTTE2LjA5MiAxMS41MzhMMTY0LjA5LjYwOGMxOC4xNzktMS41NiAyMi44NS0uNTA4IDM0LjI4IDcuODAxbDQ3LjI0MyAzMy4yODJDMjUzLjQwNiA0Ny40MTQgMjU2IDQ4Ljk3NSAyNTYgNTUuMjA3djE4Mi41MjdjMCAxMS40MzktNC4xNTUgMTguMjA1LTE4LjY5NiAxOS4yNEw2NS40NCAyNjcuMzc4Yy0xMC45MTMuNTE3LTE2LjExLTEuMDQzLTIxLjgyNS04LjMyN0w4LjgyNiAyMTMuODE0QzIuNTg2IDIwNS40ODcgMCAxOTkuMjU0IDAgMTkxLjk3VjI5LjcyNmMwLTkuMzUyIDQuMTU1LTE3LjE1MyAxNi4wOTItMTguMTg4IiBmaWxsPSIjRkZGIi8+PHBhdGggZD0iTTE2NC4wOS42MDhMMTYuMDkyIDExLjUzOEM0LjE1NSAxMi41NzMgMCAyMC4zNzQgMCAyOS43MjZ2MTYyLjI0NWMwIDcuMjg0IDIuNTg1IDEzLjUxNiA4LjgyNiAyMS44NDNsMzQuNzg5IDQ1LjIzN2M1LjcxNSA3LjI4NCAxMC45MTIgOC44NDQgMjEuODI1IDguMzI3bDE3MS44NjQtMTAuNDA0YzE0LjUzMi0xLjAzNSAxOC42OTYtNy44MDEgMTguNjk2LTE5LjI0VjU1LjIwN2MwLTUuOTExLTIuMzM2LTcuNjE0LTkuMjEtMTIuNjZsLTEuMTg1LS44NTZMMTk4LjM3IDguNDA5QzE4Ni45NC4xIDE4Mi4yNy0uOTUyIDE2NC4wOS42MDhNNjkuMzI3IDUyLjIyYy0xNC4wMzMuOTQ1LTE3LjIxNiAxLjE1OS0yNS4xODYtNS4zMjNMMjMuODc2IDMwLjc3OGMtMi4wNi0yLjA4Ni0xLjAyNi00LjY5IDQuMTYzLTUuMjA3bDE0Mi4yNzQtMTAuMzk1YzExLjk0Ny0xLjA0MyAxOC4xNyAzLjEyIDIyLjg0MiA2Ljc1OGwyNC40MDEgMTcuNjhjMS4wNDMuNTI1IDMuNjM4IDMuNjM3LjUxNyAzLjYzN0w3MS4xNDYgNTIuMDk1em0tMTYuMzYgMTgzLjk1NFY4MS4yMjJjMC02Ljc2NyAyLjA3Ny05Ljg4NyA4LjMtMTAuNDEzTDIzMC4wMiA2MC45M2M1LjcyNC0uNTE3IDguMzEgMy4xMiA4LjMxIDkuODc5djE1My45MTdjMCA2Ljc2Ny0xLjA0NCAxMi40OS0xMC4zODcgMTMuMDA4bC0xNjEuNDg3IDkuMzYxYy05LjM0My41MTctMTMuNDg5LTIuNTk0LTEzLjQ4OS0xMC45MjFNMjEyLjM3NyA4OS41M2MxLjAzNCA0LjY4MSAwIDkuMzYyLTQuNjgxIDkuODk3bC03Ljc4MyAxLjU0MnYxMTQuNDA0Yy02Ljc1OCAzLjYzNy0xMi45ODEgNS43MTUtMTguMTggNS43MTVjLTguMzA4IDAtMTAuMzg2LTIuNjA0LTE2LjYwOS0xMC4zOTZsLTUwLjg5OC04MC4wNzl2NzcuNDc2bDE2LjEgMy42NDZzMCA5LjM2Mi0xMi45ODkgOS4zNjJsLTM1LjgxNCAyLjA3N2MtMS4wNDMtMi4wODYgMC03LjI4NCAzLjYzLTguMzE4bDkuMzUxLTIuNTk1VjEwOS44MjNsLTEyLjk4LTEuMDUyYy0xLjA0NC00LjY4IDEuNTUtMTEuNDM5IDguODI2LTExLjk2NWwzOC40MjYtMi41ODVsNTIuOTU4IDgxLjExM3YtNzEuNzZsLTEzLjQ5OC0xLjU1MmMtMS4wNDMtNS43MzMgMy4xMTEtOS44OTYgOC4zLTEwLjQwNHoiLz48L3N2Zz4=;fontSize=14;fontStyle=1" vertex="1" parent="rOULUGVn5ljh-n2T-rPm-75">
          <mxGeometry x="27.607186842105225" y="16.705882352941178" width="103.4929411764706" height="108.58823529411765" as="geometry" />
        </mxCell>
        <mxCell id="rOULUGVn5ljh-n2T-rPm-76" value="" style="group" vertex="1" connectable="0" parent="rOULUGVn5ljh-n2T-rPm-108">
          <mxGeometry x="208.14" width="158.71" height="142" as="geometry" />
        </mxCell>
        <mxCell id="rOULUGVn5ljh-n2T-rPm-70" value="" style="rounded=1;whiteSpace=wrap;html=1;fillColor=#F5F5F5;strokeWidth=4;" vertex="1" parent="rOULUGVn5ljh-n2T-rPm-76">
          <mxGeometry width="158.71" height="142" as="geometry" />
        </mxCell>
        <mxCell id="rOULUGVn5ljh-n2T-rPm-1" value="&#xa;&#xa;&#xa;" style="shape=image;imageAspect=0;aspect=fixed;verticalLabelPosition=bottom;verticalAlign=top;image=data:image/svg+xml,PHN2ZyB4bWxucz0iaHR0cDovL3d3dy53My5vcmcvMjAwMC9zdmciIHZpZXdCb3g9IjAgMCAyNTYgMTkzIiBoZWlnaHQ9IjEyOCIgd2lkdGg9IjE2OS43OSI+PHBhdGggZD0iTTU4LjE4MiAxOTIuMDVWOTMuMTRMMjcuNTA3IDY1LjA3N0wwIDQ5LjUwNHYxMjUuMDkxYzAgOS42NTggNy44MjUgMTcuNDU1IDE3LjQ1NSAxNy40NTV6IiBmaWxsPSIjNDI4NUY0Ii8+PHBhdGggZD0iTTE5Ny44MTggMTkyLjA1aDQwLjcyN2M5LjY1OSAwIDE3LjQ1NS03LjgyNiAxNy40NTUtMTcuNDU1VjQ5LjUwNWwtMzEuMTU2IDE3LjgzN2wtMjcuMDI2IDI1Ljc5OHoiIGZpbGw9IiMzNEE4NTMiLz48cGF0aCBkPSJtNTguMTgyIDkzLjE0bC00LjE3NC0zOC42NDdsNC4xNzQtMzYuOTg5TDEyOCA2OS44NjhsNjkuODE4LTUyLjM2NGw0LjY2OSAzNC45OTJsLTQuNjY5IDQwLjY0NEwxMjggMTQ1LjUwNHoiIGZpbGw9IiNFQTQzMzUiLz48cGF0aCBkPSJNMTk3LjgxOCAxNy41MDRWOTMuMTRMMjU2IDQ5LjUwNFYyNi4yMzFjMC0yMS41ODUtMjQuNjQtMzMuODktNDEuODktMjAuOTQ1eiIgZmlsbD0iI0ZCQkMwNCIvPjxwYXRoIGQ9Im0wIDQ5LjUwNGwyNi43NTkgMjAuMDdMNTguMTgyIDkzLjE0VjE3LjUwNEw0MS44OSA1LjI4NkMyNC42MS03LjY2IDAgNC42NDYgMCAyNi4yM3oiIGZpbGw9IiNDNTIyMUYiLz48L3N2Zz4=;fontStyle=1;fontSize=14;" vertex="1" parent="rOULUGVn5ljh-n2T-rPm-76">
          <mxGeometry x="20.005813157894682" y="29.652941176470588" width="118.70364705882355" height="89.37647058823529" as="geometry" />
        </mxCell>
        <mxCell id="rOULUGVn5ljh-n2T-rPm-94" value="" style="group" vertex="1" connectable="0" parent="rOULUGVn5ljh-n2T-rPm-108">
          <mxGeometry x="410" y="2" width="158.71000000000004" height="142" as="geometry" />
        </mxCell>
        <mxCell id="rOULUGVn5ljh-n2T-rPm-79" value="" style="rounded=1;whiteSpace=wrap;html=1;fillColor=#F5F5F5;strokeWidth=4;" vertex="1" parent="rOULUGVn5ljh-n2T-rPm-94">
          <mxGeometry width="158.71" height="142" as="geometry" />
        </mxCell>
        <mxCell id="rOULUGVn5ljh-n2T-rPm-81" value="&#xa;&#xa;" style="shape=image;imageAspect=0;aspect=fixed;verticalLabelPosition=bottom;verticalAlign=top;image=data:image/svg+xml,PHN2ZyB4bWxucz0iaHR0cDovL3d3dy53My5vcmcvMjAwMC9zdmciIHZpZXdCb3g9IjAgMCAyNTYgMjI5IiBoZWlnaHQ9IjEyOCIgd2lkdGg9IjE0My4xIj48cGF0aCBkPSJtMTkuMzU0IDE5Ni4wMzRsMTEuMjkgMTkuNWMyLjM0NiA0LjEwNiA1LjcxOCA3LjMzMiA5LjY3NyA5LjY3OHExNy4wMDktMjEuNTkxIDIzLjY4LTMzLjEzN3E2Ljc3LTExLjcxNyAxNi42NDEtMzYuNjU1cS0yNi42MDQtMy41MDItNDAuMzItMy41MDJxLTEzLjE2NSAwLTQwLjMyMiAzLjUwMmMwIDQuNTQ1IDEuMTczIDkuMDkgMy41MTkgMTMuMTk2eiIgZmlsbD0iIzAwNjZEQSIvPjxwYXRoIGQ9Ik0yMTUuNjgxIDIyNS4yMTJjMy45Ni0yLjM0NiA3LjMzMi01LjU3MiA5LjY3Ny05LjY3N2w0LjY5Mi04LjA2NGwyMi40MzQtMzguODU1YTI2LjU3IDI2LjU3IDAgMCAwIDMuNTE4LTEzLjE5NnEtMjcuMzE1LTMuNTAyLTQwLjI0Ny0zLjUwMnEtMTMuODk5IDAtNDAuMjQ4IDMuNTAycTkuNzU0IDI1LjA3NSAxNi40MjIgMzYuNjU1cTYuNzI0IDExLjY4MyAyMy43NTIgMzMuMTM3IiBmaWxsPSIjRUE0MzM1Ii8+PHBhdGggZD0iTTEyOC4wMDEgNzMuMzExcTE5LjY4LTIzLjc2OCAyNy4xMjUtMzYuNjU1cTUuOTk2LTEwLjM3NyAxMy4xOTYtMzMuMTM3QzE2NC4zNjMgMS4xNzMgMTU5LjgxOCAwIDE1NS4xMjYgMGgtNTQuMjVDOTYuMTg0IDAgOTEuNjQgMS4zMiA4Ny42OCAzLjUxOXE5LjE2IDI2LjEwMyAxNS41NDQgMzcuMTU0cTcuMDU2IDEyLjIxMyAyNC43NzcgMzIuNjM4IiBmaWxsPSIjMDA4MzJEIi8+PHBhdGggZD0iTTE3NS4zNiAxNTUuNDJIODAuNjQybC00MC4zMiA2OS43OTJjMy45NTggMi4zNDYgOC41MDMgMy41MTkgMTMuMTk1IDMuNTE5aDE0OC45NjhjNC42OTIgMCA5LjIzOC0xLjMyIDEzLjE5Ni0zLjUyeiIgZmlsbD0iIzI2ODRGQyIvPjxwYXRoIGQ9Ik0xMjguMDAxIDczLjMxMUw4Ny42ODEgMy41MmMtMy45NiAyLjM0Ni03LjMzMiA1LjU3MS05LjY3OCA5LjY3N0wzLjUxOSAxNDIuMjI0QTI2LjU3IDI2LjU3IDAgMCAwIDAgMTU1LjQyaDgwLjY0MnoiIGZpbGw9IiMwMEFDNDciLz48cGF0aCBkPSJtMjE1LjI0MiA3Ny43MWwtMzcuMjQzLTY0LjUxNGMtMi4zNDUtNC4xMDYtNS43MTgtNy4zMzEtOS42NzctOS42NzdsLTQwLjMyIDY5Ljc5Mmw0Ny4zNTggODIuMTA5aDgwLjQ5NmMwLTQuNTQ2LTEuMTczLTkuMDktMy41MTktMTMuMTk2eiIgZmlsbD0iI0ZGQkEwMCIvPjwvc3ZnPg==;fontStyle=1;fontSize=14;strokeWidth=2;" vertex="1" parent="rOULUGVn5ljh-n2T-rPm-94">
          <mxGeometry x="26.289999999999964" y="21.5" width="106.13" height="95" as="geometry" />
        </mxCell>
        <mxCell id="rOULUGVn5ljh-n2T-rPm-110" value="&lt;font style=&quot;text-wrap: nowrap; font-size: 13px;&quot;&gt;Requests for data about tenants&lt;/font&gt;&lt;div style=&quot;font-size: 11px; text-wrap: nowrap;&quot;&gt;&lt;font style=&quot;font-size: 13px;&quot;&gt;Requests for update of field &quot;Send Reicept Result&quot; to &quot;Success&quot;&lt;/font&gt;&lt;/div&gt;&lt;div style=&quot;font-size: 11px; text-wrap: nowrap;&quot;&gt;&lt;font style=&quot;font-size: 13px;&quot;&gt;&lt;br&gt;&lt;/font&gt;&lt;/div&gt;" style="text;html=1;align=center;verticalAlign=middle;whiteSpace=wrap;rounded=0;" vertex="1" parent="1">
          <mxGeometry x="670" width="60" height="30" as="geometry" />
        </mxCell>
        <mxCell id="rOULUGVn5ljh-n2T-rPm-111" value="&lt;br&gt;&lt;span style=&quot;color: rgb(0, 0, 0); font-family: Helvetica; font-size: 13px; font-style: normal; font-variant-ligatures: normal; font-variant-caps: normal; font-weight: 400; letter-spacing: normal; orphans: 2; text-align: center; text-indent: 0px; text-transform: none; widows: 2; word-spacing: 0px; -webkit-text-stroke-width: 0px; white-space: nowrap; background-color: rgb(255, 255, 255); text-decoration-thickness: initial; text-decoration-style: initial; text-decoration-color: initial; display: inline !important; float: none;&quot;&gt;Requests to download&lt;/span&gt;&lt;div&gt;&lt;span style=&quot;color: rgb(0, 0, 0); font-family: Helvetica; font-size: 13px; font-style: normal; font-variant-ligatures: normal; font-variant-caps: normal; font-weight: 400; letter-spacing: normal; orphans: 2; text-align: center; text-indent: 0px; text-transform: none; widows: 2; word-spacing: 0px; -webkit-text-stroke-width: 0px; white-space: nowrap; background-color: rgb(255, 255, 255); text-decoration-thickness: initial; text-decoration-style: initial; text-decoration-color: initial; display: inline !important; float: none;&quot;&gt;&amp;nbsp;the receipt file&amp;nbsp;&lt;/span&gt;&lt;span style=&quot;background-color: rgb(255, 255, 255); font-size: 13px; text-wrap: nowrap;&quot;&gt;from storage&lt;/span&gt;&lt;div&gt;&lt;br&gt;&lt;/div&gt;&lt;/div&gt;" style="text;html=1;align=center;verticalAlign=middle;whiteSpace=wrap;rounded=0;" vertex="1" parent="1">
          <mxGeometry x="1190" y="-20" width="60" height="30" as="geometry" />
        </mxCell>
        <mxCell id="rOULUGVn5ljh-n2T-rPm-113" value="&lt;br&gt;&lt;span style=&quot;color: rgb(0, 0, 0); font-family: Helvetica; font-size: 13px; font-style: normal; font-variant-ligatures: normal; font-variant-caps: normal; font-weight: 400; letter-spacing: normal; orphans: 2; text-align: center; text-indent: 0px; text-transform: none; widows: 2; word-spacing: 0px; -webkit-text-stroke-width: 0px; white-space: nowrap; background-color: rgb(255, 255, 255); text-decoration-thickness: initial; text-decoration-style: initial; text-decoration-color: initial; display: inline !important; float: none;&quot;&gt;Requests to send email&lt;/span&gt;&lt;div&gt;&lt;span style=&quot;color: rgb(0, 0, 0); font-family: Helvetica; font-size: 13px; font-style: normal; font-variant-ligatures: normal; font-variant-caps: normal; font-weight: 400; letter-spacing: normal; orphans: 2; text-align: center; text-indent: 0px; text-transform: none; widows: 2; word-spacing: 0px; -webkit-text-stroke-width: 0px; white-space: nowrap; background-color: rgb(255, 255, 255); text-decoration-thickness: initial; text-decoration-style: initial; text-decoration-color: initial; display: inline !important; float: none;&quot;&gt;&amp;nbsp;with attachments&lt;/span&gt;&lt;br&gt;&lt;br&gt;&lt;/div&gt;" style="text;html=1;align=center;verticalAlign=middle;whiteSpace=wrap;rounded=0;" vertex="1" parent="1">
          <mxGeometry x="980" y="-10" width="60" height="30" as="geometry" />
        </mxCell>
        <mxCell id="rOULUGVn5ljh-n2T-rPm-115" value="" style="group" vertex="1" connectable="0" parent="1">
          <mxGeometry x="-40" y="-203" width="513.71" height="170" as="geometry" />
        </mxCell>
        <mxCell id="rOULUGVn5ljh-n2T-rPm-105" value="" style="group" vertex="1" connectable="0" parent="rOULUGVn5ljh-n2T-rPm-115">
          <mxGeometry width="190" height="170" as="geometry" />
        </mxCell>
        <mxCell id="rOULUGVn5ljh-n2T-rPm-74" value="" style="rounded=1;whiteSpace=wrap;html=1;fillColor=#F5F5F5;strokeWidth=4;" vertex="1" parent="rOULUGVn5ljh-n2T-rPm-105">
          <mxGeometry width="190" height="170" as="geometry" />
        </mxCell>
        <mxCell id="rOULUGVn5ljh-n2T-rPm-5" value="&lt;div&gt;&lt;br&gt;&lt;/div&gt;&lt;div&gt;&lt;br&gt;&lt;/div&gt;&lt;div&gt;&lt;br&gt;&lt;/div&gt;&lt;div&gt;&lt;b style=&quot;background-color: initial;&quot;&gt;&lt;font style=&quot;font-size: 14px;&quot;&gt;User&lt;/font&gt;&lt;/b&gt;&lt;br&gt;&lt;/div&gt;" style="sketch=0;outlineConnect=0;fontColor=#232F3E;gradientColor=none;fillColor=#000000;strokeColor=none;dashed=0;verticalLabelPosition=bottom;verticalAlign=top;align=center;html=1;fontSize=12;fontStyle=0;aspect=fixed;pointerEvents=1;shape=mxgraph.aws4.user;" vertex="1" parent="rOULUGVn5ljh-n2T-rPm-105">
          <mxGeometry x="50" y="46" width="78" height="78" as="geometry" />
        </mxCell>
        <mxCell id="rOULUGVn5ljh-n2T-rPm-118" style="edgeStyle=orthogonalEdgeStyle;rounded=0;orthogonalLoop=1;jettySize=auto;html=1;exitX=0.5;exitY=1;exitDx=0;exitDy=0;entryX=0.5;entryY=0;entryDx=0;entryDy=0;strokeWidth=2;dashed=1;startArrow=classic;startFill=1;" edge="1" parent="1" source="rOULUGVn5ljh-n2T-rPm-70" target="rOULUGVn5ljh-n2T-rPm-62">
          <mxGeometry relative="1" as="geometry" />
        </mxCell>
        <mxCell id="rOULUGVn5ljh-n2T-rPm-116" style="edgeStyle=orthogonalEdgeStyle;rounded=0;orthogonalLoop=1;jettySize=auto;html=1;exitX=0.152;exitY=0;exitDx=0;exitDy=0;entryX=0.5;entryY=1;entryDx=0;entryDy=0;strokeWidth=2;dashed=1;startArrow=classic;startFill=1;exitPerimeter=0;" edge="1" parent="1" source="rOULUGVn5ljh-n2T-rPm-62" target="rOULUGVn5ljh-n2T-rPm-69">
          <mxGeometry relative="1" as="geometry">
            <Array as="points">
              <mxPoint x="900" y="177" />
              <mxPoint x="900" y="-20" />
              <mxPoint x="729" y="-20" />
            </Array>
          </mxGeometry>
        </mxCell>
        <mxCell id="rOULUGVn5ljh-n2T-rPm-119" style="edgeStyle=orthogonalEdgeStyle;rounded=0;orthogonalLoop=1;jettySize=auto;html=1;exitX=0.5;exitY=1;exitDx=0;exitDy=0;entryX=0.833;entryY=0.018;entryDx=0;entryDy=0;entryPerimeter=0;strokeWidth=2;dashed=1;startArrow=classic;startFill=1;" edge="1" parent="1" source="rOULUGVn5ljh-n2T-rPm-79" target="rOULUGVn5ljh-n2T-rPm-62">
          <mxGeometry relative="1" as="geometry" />
        </mxCell>
        <mxCell id="rOULUGVn5ljh-n2T-rPm-125" value="" style="rounded=1;whiteSpace=wrap;html=1;fillColor=#F5F5F5;strokeWidth=4;" vertex="1" parent="1">
          <mxGeometry x="-50" y="305" width="480" height="215" as="geometry" />
        </mxCell>
        <mxCell id="rOULUGVn5ljh-n2T-rPm-120" value="" style="shape=image;imageAspect=0;aspect=fixed;verticalLabelPosition=bottom;verticalAlign=top;image=data:image/svg+xml,PHN2ZyB4bWxucz0iaHR0cDovL3d3dy53My5vcmcvMjAwMC9zdmciIHZpZXdCb3g9IjAgMCA1MTIgMTM5IiBoZWlnaHQ9IjEyOCIgd2lkdGg9IjQ3MS40OSI+PHBhdGggZD0ibTEyMC4yMTggOTUuMDdsLS4wNzItLjIyOGw0NS41MjMtNDEuNjc1di0yMC4wOEg5Mi42MzR2MjAuMDhoNDMuNjI0bC4wNzIuMTkyTDkxLjI1MSA5NS4wN3YyMC4wOGg3NS4xNTJWOTUuMDd6bTkxLjAyMi02My44OTZxLTEyLjYzNiAwLTIwLjU5NyAzLjgxMmEyNy4wMyAyNy4wMyAwIDAgMC0xMS45NTIgMTAuNDczYTM4LjEgMzguMSAwIDAgMC01LjAxNCAxNS4xNWwyMi4xNiAzLjExNXExLjIwNC03LjA4MiA0LjgxLTEwLjA0YTE0LjcgMTQuNyAwIDAgMSA4LjUtMi45NThsMS4wMjMuMDEycTYuNzQ3IDAgOS43ODcgMy42MDdjMi4wMSAyLjQwNSAzLjAzMiA1LjczNSAzLjAzMiAxMC4xMjR2Mi4xODlIMjAxLjY4cS0xNi4yNjggMC0yMy4zNzUgNy4yMTR0LTcuMDk0IDE5LjA0NnEwIDEyLjEyIDcuMDk0IDE4LjAzN3E3LjA5NSA1LjkxNSAxNy44NDQgNS44OHExMy4zMzYgMCAyMC41MTMtOS4xNzVhMzQuMSAzNC4xIDAgMCAwIDUuOTI4LTEyLjYzN2guODA2bDMuMDU0IDIwLjA4aDIwLjA4di01MC44NXEwLTE1Ljc2NS04LjMwOC0yNC40MjFxLTguMzEtOC42NTgtMjYuOTgzLTguNjU4bTcuMDIzIDYyLjY4MmMtMy4xODcgMi42NTgtNy4zNiAzLjk4LTEyLjU1NCAzLjk4cS02LjQyIDAtOC45MjEtMi4yNDhhNy4zNSA3LjM1IDAgMCAxLTIuNTE0LTUuNzEyYTcuNSA3LjUgMCAwIDEgMi4wOC01LjU0M2E3LjczIDcuNzMgMCAwIDEgNC45My0yLjA4M2wyMS43NC4wMDN2MS4zODNhMTIuNzYgMTIuNzYgMCAwIDEtNC43NjEgMTAuMjJtMTQ5LjY4OS02MC43N2gtMjMuNzIzdjgyLjA3N2gyMy43MjN6bTE0MC4wNjkgMHEtMTAuMDUzIDAtMTUuODQ5IDcuMDk0cS00LjE1OCA1LjA5OS02LjMyMyAxNS4wNjdoLS42OThsLTMuMTAzLTIyLjE2aC0yMC4yNnY4Mi4wNjRoMjMuNzI1VjczLjA2NnEwLTcuOTU5IDMuNzI3LTEyLjIwNHEzLjcyOC00LjI0NSAxMy43NTQtNC4yNDVINTEydi0yMy41M3ptLTY5Ljc3NyAyLjY4MnEtOC4zMDctNC45NDItMjAuOTU3LTQuOTNxLTE5LjkxMyAwLTMxLjE2NiAxMS4zMzhxLTExLjI1NiAxMS4zNC0xMS4yNTUgMzEuMjYzYTQ5LjggNDkuOCAwIDAgMCA1LjExIDIzLjE5NWEzNi44MyAzNi44MyAwIDAgMCAxNC41NDkgMTUuMzNxOS40MjUgNS40NDggMjIuNDI2IDUuNDZxMTEuMjQxIDAgMTguNzgtMy40NjNhMzAuMiAzMC4yIDAgMCAwIDExLjk1My05LjQ0YTQxLjIgNDEuMiAwIDAgMCA2LjQ5Mi0xMy40MThsLTIwLjQ0LTUuNzI0YTE4Ljk1IDE4Ljk1IDAgMCAxLTQuODEgOC4zMjFxLTMuNDY1IDMuNDYzLTExLjYwMyAzLjQ2M3EtOS42OCAwLTE0LjQzLTUuNTQzYy0yLjI5Ny0yLjY3LTMuNzQtNi40ODEtNC4zNzYtMTEuNDIzaDU1Ljk3MmMuMjMtMi4zMDkuMzUtNC4yNDUuMzUtNS44MDh2LTUuMTFhNDUuNiA0NS42IDAgMCAwLTQuMTQ4LTE5LjkxMmEzMS4xNyAzMS4xNyAwIDAgMC0xMi40NDctMTMuNk00MTYuNjAyIDUwLjRxMTQuNDI4IDAgMTYuMzYzIDE0LjJoLTM0LjAyOGExOS41NSAxOS41NSAwIDAgMSAzLjgxMi04LjY2OXE0LjY3OS01LjU0MyAxMy44NTMtNS41MzFNMzU2LjM0OC4wMDhhMTMuMzIgMTMuMzIgMCAwIDAtOS43MDQgMy43MjdhMTIuODcgMTIuODcgMCAwIDAtMy44MDYgOC41NTNsLS4wMDUgMS4wNjZhMTMuMDQgMTMuMDQgMCAwIDAgMy44MTcgOS42OTVhMTMuMDQgMTMuMDQgMCAwIDAgOC42MjUgMy44MDRsMS4wNzMuMDA1YTEyLjgzIDEyLjgzIDAgMCAwIDkuNjItMy44MTJhMTMuMiAxMy4yIDAgMCAwIDMuNzEyLTguNjIzbC4wMDQtMS4wNjlhMTIuNzUgMTIuNzUgMCAwIDAtLjg0Ny01LjE5NWExMi44IDEyLjggMCAwIDAtMi44NzItNC40MTJBMTIuNzcgMTIuNzcgMCAwIDAgMzU2LjM2LjAyem0tNDkuMDEgMzAuODNxLTEyLjEyIDAtMTkuNDc5IDcuNjFxLTUuNDQ4IDUuNjQtNy45OTYgMTYuODM1aC0uNzU3bC0zLjEwMy0yMi4xNmgtMjAuMjZ2MTA1LjYyaDIzLjcyMlY5NS4yMzloLjg2NmE0NC4zIDQ0LjMgMCAwIDAgMy4wMyA4LjQxN2EyMy45IDIzLjkgMCAwIDAgOS40NCAxMC41NTdhMjcuNyAyNy43IDAgMCAwIDE0LjAyIDMuMzhxMTQuODk3IDAgMjIuNjg4LTExLjYwNHE3Ljc5My0xMS42MDQgNy43OTMtMzIuMzgxcS0uMDAxLTIwLjA2OS03LjUzOC0zMS40MnEtNy41NC0xMS4zNS0yMi40MjYtMTEuMzVtMi40MDUgNTkuNDcxcS0zLjg3MyA1LjYxMi0xMS44MyA1Ljk4NWwtMS4xNTcuMDI3YTE1LjMgMTUuMyAwIDAgMS0xMi43Mi01LjgwN3EtNC42MDctNS43ODQtNC41OTQtMTUuODM2di0xLjU2M3EwLTEwLjIxIDQuNTkzLTE1LjYzMnE0LjU5My01LjQyMyAxMi43Mi01LjM2M3E4Ljk5NiAwIDEzLjA3MiA1LjcxMnE0LjA3NyA1LjcxMiA0LjA3NiAxNS45MzJxLjAyNiAxMC41NjktNC4xMzcgMTYuNTQ1eiIgZmlsbD0iIzIwMTUxNSIvPjxwYXRoIGQ9Ik04Mi4wNzcgOTUuMDcxSDB2MjAuMTA0aDgyLjA3N3oiIGZpbGw9IiNGRjRGMDAiLz48L3N2Zz4=;" vertex="1" parent="1">
          <mxGeometry x="-20" y="320" width="103.03" height="28" as="geometry" />
        </mxCell>
        <mxCell id="rOULUGVn5ljh-n2T-rPm-122" value="" style="group" vertex="1" connectable="0" parent="1">
          <mxGeometry x="190" y="374" width="140" height="80" as="geometry" />
        </mxCell>
        <mxCell id="rOULUGVn5ljh-n2T-rPm-123" value="" style="rounded=1;whiteSpace=wrap;html=1;fillColor=#F5E2CB;strokeWidth=3;" vertex="1" parent="rOULUGVn5ljh-n2T-rPm-122">
          <mxGeometry x="3.3599999999999994" width="140" height="80" as="geometry" />
        </mxCell>
        <mxCell id="rOULUGVn5ljh-n2T-rPm-124" value="Uncheck &quot;Send Receipt Field&quot;&#xa;Reinitialize field &quot;Send Receipt&quot;&#xa;to &quot;Reinit&quot;" style="shape=image;imageAspect=0;aspect=fixed;verticalLabelPosition=bottom;verticalAlign=top;image=data:image/svg+xml,PHN2ZyB4bWxucz0iaHR0cDovL3d3dy53My5vcmcvMjAwMC9zdmciIHZpZXdCb3g9IjAgMCAyNTYgMjY4IiBoZWlnaHQ9IjEyOCIgd2lkdGg9IjEyMi4yNyI+PHBhdGggZD0iTTE2LjA5MiAxMS41MzhMMTY0LjA5LjYwOGMxOC4xNzktMS41NiAyMi44NS0uNTA4IDM0LjI4IDcuODAxbDQ3LjI0MyAzMy4yODJDMjUzLjQwNiA0Ny40MTQgMjU2IDQ4Ljk3NSAyNTYgNTUuMjA3djE4Mi41MjdjMCAxMS40MzktNC4xNTUgMTguMjA1LTE4LjY5NiAxOS4yNEw2NS40NCAyNjcuMzc4Yy0xMC45MTMuNTE3LTE2LjExLTEuMDQzLTIxLjgyNS04LjMyN0w4LjgyNiAyMTMuODE0QzIuNTg2IDIwNS40ODcgMCAxOTkuMjU0IDAgMTkxLjk3VjI5LjcyNmMwLTkuMzUyIDQuMTU1LTE3LjE1MyAxNi4wOTItMTguMTg4IiBmaWxsPSIjRkZGIi8+PHBhdGggZD0iTTE2NC4wOS42MDhMMTYuMDkyIDExLjUzOEM0LjE1NSAxMi41NzMgMCAyMC4zNzQgMCAyOS43MjZ2MTYyLjI0NWMwIDcuMjg0IDIuNTg1IDEzLjUxNiA4LjgyNiAyMS44NDNsMzQuNzg5IDQ1LjIzN2M1LjcxNSA3LjI4NCAxMC45MTIgOC44NDQgMjEuODI1IDguMzI3bDE3MS44NjQtMTAuNDA0YzE0LjUzMi0xLjAzNSAxOC42OTYtNy44MDEgMTguNjk2LTE5LjI0VjU1LjIwN2MwLTUuOTExLTIuMzM2LTcuNjE0LTkuMjEtMTIuNjZsLTEuMTg1LS44NTZMMTk4LjM3IDguNDA5QzE4Ni45NC4xIDE4Mi4yNy0uOTUyIDE2NC4wOS42MDhNNjkuMzI3IDUyLjIyYy0xNC4wMzMuOTQ1LTE3LjIxNiAxLjE1OS0yNS4xODYtNS4zMjNMMjMuODc2IDMwLjc3OGMtMi4wNi0yLjA4Ni0xLjAyNi00LjY5IDQuMTYzLTUuMjA3bDE0Mi4yNzQtMTAuMzk1YzExLjk0Ny0xLjA0MyAxOC4xNyAzLjEyIDIyLjg0MiA2Ljc1OGwyNC40MDEgMTcuNjhjMS4wNDMuNTI1IDMuNjM4IDMuNjM3LjUxNyAzLjYzN0w3MS4xNDYgNTIuMDk1em0tMTYuMzYgMTgzLjk1NFY4MS4yMjJjMC02Ljc2NyAyLjA3Ny05Ljg4NyA4LjMtMTAuNDEzTDIzMC4wMiA2MC45M2M1LjcyNC0uNTE3IDguMzEgMy4xMiA4LjMxIDkuODc5djE1My45MTdjMCA2Ljc2Ny0xLjA0NCAxMi40OS0xMC4zODcgMTMuMDA4bC0xNjEuNDg3IDkuMzYxYy05LjM0My41MTctMTMuNDg5LTIuNTk0LTEzLjQ4OS0xMC45MjFNMjEyLjM3NyA4OS41M2MxLjAzNCA0LjY4MSAwIDkuMzYyLTQuNjgxIDkuODk3bC03Ljc4MyAxLjU0MnYxMTQuNDA0Yy02Ljc1OCAzLjYzNy0xMi45ODEgNS43MTUtMTguMTggNS43MTVjLTguMzA4IDAtMTAuMzg2LTIuNjA0LTE2LjYwOS0xMC4zOTZsLTUwLjg5OC04MC4wNzl2NzcuNDc2bDE2LjEgMy42NDZzMCA5LjM2Mi0xMi45ODkgOS4zNjJsLTM1LjgxNCAyLjA3N2MtMS4wNDMtMi4wODYgMC03LjI4NCAzLjYzLTguMzE4bDkuMzUxLTIuNTk1VjEwOS44MjNsLTEyLjk4LTEuMDUyYy0xLjA0NC00LjY4IDEuNTUtMTEuNDM5IDguODI2LTExLjk2NWwzOC40MjYtMi41ODVsNTIuOTU4IDgxLjExM3YtNzEuNzZsLTEzLjQ5OC0xLjU1MmMtMS4wNDMtNS43MzMgMy4xMTEtOS44OTYgOC4zLTEwLjQwNHoiLz48L3N2Zz4=;fontSize=13;" vertex="1" parent="rOULUGVn5ljh-n2T-rPm-122">
          <mxGeometry x="39.999999999999986" y="5" width="66.72" height="70" as="geometry" />
        </mxCell>
        <mxCell id="rOULUGVn5ljh-n2T-rPm-126" style="edgeStyle=orthogonalEdgeStyle;rounded=0;orthogonalLoop=1;jettySize=auto;html=1;exitX=0.5;exitY=1;exitDx=0;exitDy=0;" edge="1" parent="1" source="rOULUGVn5ljh-n2T-rPm-125" target="rOULUGVn5ljh-n2T-rPm-125">
          <mxGeometry relative="1" as="geometry" />
        </mxCell>
        <mxCell id="rOULUGVn5ljh-n2T-rPm-131" value="" style="group" vertex="1" connectable="0" parent="1">
          <mxGeometry x="20" y="374" width="140" height="80" as="geometry" />
        </mxCell>
        <mxCell id="rOULUGVn5ljh-n2T-rPm-132" value="" style="rounded=1;whiteSpace=wrap;html=1;fillColor=#F5E2CB;strokeWidth=3;" vertex="1" parent="rOULUGVn5ljh-n2T-rPm-131">
          <mxGeometry width="140" height="80" as="geometry" />
        </mxCell>
        <mxCell id="rOULUGVn5ljh-n2T-rPm-133" value="&lt;font style=&quot;font-size: 13px;&quot;&gt;Scheduler&lt;/font&gt;&lt;div&gt;&lt;font style=&quot;font-size: 13px;&quot;&gt;Monthly triggers&lt;/font&gt;&lt;/div&gt;" style="verticalLabelPosition=bottom;html=1;verticalAlign=top;align=center;strokeColor=none;fillColor=#000A0D;shape=mxgraph.azure.scheduler;pointerEvents=1;rotation=0;" vertex="1" parent="rOULUGVn5ljh-n2T-rPm-131">
          <mxGeometry x="40.25" y="7" width="59.5" height="68" as="geometry" />
        </mxCell>
        <mxCell id="rOULUGVn5ljh-n2T-rPm-134" value="" style="group" vertex="1" connectable="0" parent="1">
          <mxGeometry x="360" y="-189" width="158.71" height="142" as="geometry" />
        </mxCell>
        <mxCell id="rOULUGVn5ljh-n2T-rPm-99" value="" style="rounded=1;whiteSpace=wrap;html=1;fillColor=#F5F5F5;strokeWidth=4;" vertex="1" parent="rOULUGVn5ljh-n2T-rPm-134">
          <mxGeometry width="158.71" height="142" as="geometry" />
        </mxCell>
        <mxCell id="rOULUGVn5ljh-n2T-rPm-100" value="&#xa;&#xa;Notion UI" style="shape=image;imageAspect=0;aspect=fixed;verticalLabelPosition=bottom;verticalAlign=top;image=data:image/svg+xml,PHN2ZyB4bWxucz0iaHR0cDovL3d3dy53My5vcmcvMjAwMC9zdmciIHZpZXdCb3g9IjAgMCAyNTYgMjY4IiBoZWlnaHQ9IjEyOCIgd2lkdGg9IjEyMi4yNyI+PHBhdGggZD0iTTE2LjA5MiAxMS41MzhMMTY0LjA5LjYwOGMxOC4xNzktMS41NiAyMi44NS0uNTA4IDM0LjI4IDcuODAxbDQ3LjI0MyAzMy4yODJDMjUzLjQwNiA0Ny40MTQgMjU2IDQ4Ljk3NSAyNTYgNTUuMjA3djE4Mi41MjdjMCAxMS40MzktNC4xNTUgMTguMjA1LTE4LjY5NiAxOS4yNEw2NS40NCAyNjcuMzc4Yy0xMC45MTMuNTE3LTE2LjExLTEuMDQzLTIxLjgyNS04LjMyN0w4LjgyNiAyMTMuODE0QzIuNTg2IDIwNS40ODcgMCAxOTkuMjU0IDAgMTkxLjk3VjI5LjcyNmMwLTkuMzUyIDQuMTU1LTE3LjE1MyAxNi4wOTItMTguMTg4IiBmaWxsPSIjRkZGIi8+PHBhdGggZD0iTTE2NC4wOS42MDhMMTYuMDkyIDExLjUzOEM0LjE1NSAxMi41NzMgMCAyMC4zNzQgMCAyOS43MjZ2MTYyLjI0NWMwIDcuMjg0IDIuNTg1IDEzLjUxNiA4LjgyNiAyMS44NDNsMzQuNzg5IDQ1LjIzN2M1LjcxNSA3LjI4NCAxMC45MTIgOC44NDQgMjEuODI1IDguMzI3bDE3MS44NjQtMTAuNDA0YzE0LjUzMi0xLjAzNSAxOC42OTYtNy44MDEgMTguNjk2LTE5LjI0VjU1LjIwN2MwLTUuOTExLTIuMzM2LTcuNjE0LTkuMjEtMTIuNjZsLTEuMTg1LS44NTZMMTk4LjM3IDguNDA5QzE4Ni45NC4xIDE4Mi4yNy0uOTUyIDE2NC4wOS42MDhNNjkuMzI3IDUyLjIyYy0xNC4wMzMuOTQ1LTE3LjIxNiAxLjE1OS0yNS4xODYtNS4zMjNMMjMuODc2IDMwLjc3OGMtMi4wNi0yLjA4Ni0xLjAyNi00LjY5IDQuMTYzLTUuMjA3bDE0Mi4yNzQtMTAuMzk1YzExLjk0Ny0xLjA0MyAxOC4xNyAzLjEyIDIyLjg0MiA2Ljc1OGwyNC40MDEgMTcuNjhjMS4wNDMuNTI1IDMuNjM4IDMuNjM3LjUxNyAzLjYzN0w3MS4xNDYgNTIuMDk1em0tMTYuMzYgMTgzLjk1NFY4MS4yMjJjMC02Ljc2NyAyLjA3Ny05Ljg4NyA4LjMtMTAuNDEzTDIzMC4wMiA2MC45M2M1LjcyNC0uNTE3IDguMzEgMy4xMiA4LjMxIDkuODc5djE1My45MTdjMCA2Ljc2Ny0xLjA0NCAxMi40OS0xMC4zODcgMTMuMDA4bC0xNjEuNDg3IDkuMzYxYy05LjM0My41MTctMTMuNDg5LTIuNTk0LTEzLjQ4OS0xMC45MjFNMjEyLjM3NyA4OS41M2MxLjAzNCA0LjY4MSAwIDkuMzYyLTQuNjgxIDkuODk3bC03Ljc4MyAxLjU0MnYxMTQuNDA0Yy02Ljc1OCAzLjYzNy0xMi45ODEgNS43MTUtMTguMTggNS43MTVjLTguMzA4IDAtMTAuMzg2LTIuNjA0LTE2LjYwOS0xMC4zOTZsLTUwLjg5OC04MC4wNzl2NzcuNDc2bDE2LjEgMy42NDZzMCA5LjM2Mi0xMi45ODkgOS4zNjJsLTM1LjgxNCAyLjA3N2MtMS4wNDMtMi4wODYgMC03LjI4NCAzLjYzLTguMzE4bDkuMzUxLTIuNTk1VjEwOS44MjNsLTEyLjk4LTEuMDUyYy0xLjA0NC00LjY4IDEuNTUtMTEuNDM5IDguODI2LTExLjk2NWwzOC40MjYtMi41ODVsNTIuOTU4IDgxLjExM3YtNzEuNzZsLTEzLjQ5OC0xLjU1MmMtMS4wNDMtNS43MzMgMy4xMTEtOS44OTYgOC4zLTEwLjQwNHoiLz48L3N2Zz4=;fontSize=14;fontStyle=1" vertex="1" parent="rOULUGVn5ljh-n2T-rPm-134">
          <mxGeometry x="27.60718684210522" y="16.705882352941178" width="103.4929411764706" height="108.58823529411765" as="geometry" />
        </mxCell>
        <mxCell id="rOULUGVn5ljh-n2T-rPm-104" style="edgeStyle=orthogonalEdgeStyle;rounded=0;orthogonalLoop=1;jettySize=auto;html=1;exitX=1;exitY=0.5;exitDx=0;exitDy=0;entryX=0;entryY=0.5;entryDx=0;entryDy=0;strokeWidth=2;" edge="1" parent="1" source="rOULUGVn5ljh-n2T-rPm-74" target="rOULUGVn5ljh-n2T-rPm-99">
          <mxGeometry relative="1" as="geometry" />
        </mxCell>
        <mxCell id="rOULUGVn5ljh-n2T-rPm-106" value="&lt;font style=&quot;font-size: 13px;&quot;&gt;When user wants to send receipt :&lt;/font&gt;&lt;div&gt;&lt;font style=&quot;font-size: 13px;&quot;&gt;updates field &quot;Send Receipt&quot;&lt;/font&gt;&lt;div style=&quot;font-size: 13px;&quot;&gt;&lt;font style=&quot;font-size: 13px;&quot;&gt;in Tenants db view&lt;/font&gt;&lt;/div&gt;&lt;div style=&quot;font-size: 13px;&quot;&gt;&lt;font style=&quot;font-size: 13px;&quot;&gt;to trigger the automation&lt;br&gt;&lt;/font&gt;&lt;div&gt;&lt;br&gt;&lt;/div&gt;&lt;/div&gt;&lt;/div&gt;" style="edgeLabel;html=1;align=center;verticalAlign=middle;resizable=0;points=[];" vertex="1" connectable="0" parent="rOULUGVn5ljh-n2T-rPm-104">
          <mxGeometry x="0.0201" y="3" relative="1" as="geometry">
            <mxPoint x="-1" y="-45" as="offset" />
          </mxGeometry>
        </mxCell>
        <mxCell id="rOULUGVn5ljh-n2T-rPm-135" style="edgeStyle=orthogonalEdgeStyle;rounded=0;orthogonalLoop=1;jettySize=auto;html=1;exitX=1;exitY=0.5;exitDx=0;exitDy=0;entryX=0;entryY=0.5;entryDx=0;entryDy=0;" edge="1" parent="1" source="rOULUGVn5ljh-n2T-rPm-132" target="rOULUGVn5ljh-n2T-rPm-123">
          <mxGeometry relative="1" as="geometry" />
        </mxCell>
        <mxCell id="rOULUGVn5ljh-n2T-rPm-136" value="&lt;br&gt;&lt;span style=&quot;color: rgb(0, 0, 0); font-family: Helvetica; font-size: 14px; font-style: normal; font-variant-ligatures: normal; font-variant-caps: normal; font-weight: 700; letter-spacing: normal; orphans: 2; text-align: center; text-indent: 0px; text-transform: none; widows: 2; word-spacing: 0px; -webkit-text-stroke-width: 0px; white-space: nowrap; background-color: rgb(251, 251, 251); text-decoration-thickness: initial; text-decoration-style: initial; text-decoration-color: initial; display: inline !important; float: none;&quot;&gt;Notion API&lt;/span&gt;&lt;div&gt;&lt;br/&gt;&lt;/div&gt;" style="text;html=1;align=center;verticalAlign=middle;whiteSpace=wrap;rounded=0;" vertex="1" parent="1">
          <mxGeometry x="690" y="-230" width="60" height="30" as="geometry" />
        </mxCell>
        <mxCell id="rOULUGVn5ljh-n2T-rPm-137" value="&lt;br&gt;&lt;div&gt;&lt;span style=&quot;font-size: 14px; text-wrap: nowrap;&quot;&gt;&lt;b&gt;GMail API&lt;/b&gt;&lt;/span&gt;&lt;/div&gt;" style="text;html=1;align=center;verticalAlign=middle;whiteSpace=wrap;rounded=0;" vertex="1" parent="1">
          <mxGeometry x="904.36" y="-233" width="60" height="30" as="geometry" />
        </mxCell>
        <mxCell id="rOULUGVn5ljh-n2T-rPm-138" value="&lt;span style=&quot;color: rgb(0, 0, 0); font-family: Helvetica; font-size: 14px; font-style: normal; font-variant-ligatures: normal; font-variant-caps: normal; font-weight: 700; letter-spacing: normal; orphans: 2; text-align: center; text-indent: 0px; text-transform: none; widows: 2; word-spacing: 0px; -webkit-text-stroke-width: 0px; white-space: nowrap; background-color: rgb(251, 251, 251); text-decoration-thickness: initial; text-decoration-style: initial; text-decoration-color: initial; display: inline !important; float: none;&quot;&gt;Google Drive API&lt;/span&gt;" style="text;whiteSpace=wrap;html=1;" vertex="1" parent="1">
          <mxGeometry x="1090" y="-229" width="100" height="40" as="geometry" />
        </mxCell>
        <mxCell id="rOULUGVn5ljh-n2T-rPm-139" style="edgeStyle=orthogonalEdgeStyle;rounded=0;orthogonalLoop=1;jettySize=auto;html=1;exitX=0.5;exitY=1;exitDx=0;exitDy=0;" edge="1" parent="1" source="rOULUGVn5ljh-n2T-rPm-137" target="rOULUGVn5ljh-n2T-rPm-137">
          <mxGeometry relative="1" as="geometry" />
        </mxCell>
        <mxCell id="rOULUGVn5ljh-n2T-rPm-140" value="&lt;b&gt;&lt;font style=&quot;font-size: 13px;&quot;&gt;Automation 1&lt;/font&gt;&lt;/b&gt;" style="rounded=1;whiteSpace=wrap;html=1;" vertex="1" parent="1">
          <mxGeometry x="120" y="34" width="170" height="30" as="geometry" />
        </mxCell>
        <mxCell id="rOULUGVn5ljh-n2T-rPm-141" value="&lt;b&gt;&lt;font style=&quot;font-size: 13px;&quot;&gt;Automation 2&lt;/font&gt;&lt;/b&gt;" style="rounded=1;whiteSpace=wrap;html=1;" vertex="1" parent="1">
          <mxGeometry x="120" y="320" width="170" height="30" as="geometry" />
        </mxCell>
        <mxCell id="rOULUGVn5ljh-n2T-rPm-142" value="" style="group" vertex="1" connectable="0" parent="1">
          <mxGeometry x="-31" y="130" width="406" height="80" as="geometry" />
        </mxCell>
        <mxCell id="rOULUGVn5ljh-n2T-rPm-4" value="Send HTTP Post&lt;div&gt;with Tenant Info from Notion&lt;/div&gt;" style="sketch=0;outlineConnect=0;fillColor=#040505;strokeColor=#23445d;dashed=0;verticalLabelPosition=bottom;verticalAlign=top;align=center;html=1;fontSize=12;fontStyle=0;aspect=fixed;pointerEvents=1;shape=mxgraph.aws4.globe;gradientColor=none;" vertex="1" parent="rOULUGVn5ljh-n2T-rPm-142">
          <mxGeometry x="336" y="5" width="70" height="70" as="geometry" />
        </mxCell>
        <mxCell id="rOULUGVn5ljh-n2T-rPm-36" value="" style="group" vertex="1" connectable="0" parent="rOULUGVn5ljh-n2T-rPm-142">
          <mxGeometry x="151" width="140" height="80" as="geometry" />
        </mxCell>
        <mxCell id="rOULUGVn5ljh-n2T-rPm-29" value="" style="rounded=1;whiteSpace=wrap;html=1;fillColor=#F5E2CB;strokeWidth=3;" vertex="1" parent="rOULUGVn5ljh-n2T-rPm-36">
          <mxGeometry width="140" height="80" as="geometry" />
        </mxCell>
        <mxCell id="rOULUGVn5ljh-n2T-rPm-35" value="Looks for updates of&#xa;Tenants field" style="shape=image;imageAspect=0;aspect=fixed;verticalLabelPosition=bottom;verticalAlign=top;image=data:image/svg+xml,PHN2ZyB4bWxucz0iaHR0cDovL3d3dy53My5vcmcvMjAwMC9zdmciIHZpZXdCb3g9IjAgMCAyNTYgMjY4IiBoZWlnaHQ9IjEyOCIgd2lkdGg9IjEyMi4yNyI+PHBhdGggZD0iTTE2LjA5MiAxMS41MzhMMTY0LjA5LjYwOGMxOC4xNzktMS41NiAyMi44NS0uNTA4IDM0LjI4IDcuODAxbDQ3LjI0MyAzMy4yODJDMjUzLjQwNiA0Ny40MTQgMjU2IDQ4Ljk3NSAyNTYgNTUuMjA3djE4Mi41MjdjMCAxMS40MzktNC4xNTUgMTguMjA1LTE4LjY5NiAxOS4yNEw2NS40NCAyNjcuMzc4Yy0xMC45MTMuNTE3LTE2LjExLTEuMDQzLTIxLjgyNS04LjMyN0w4LjgyNiAyMTMuODE0QzIuNTg2IDIwNS40ODcgMCAxOTkuMjU0IDAgMTkxLjk3VjI5LjcyNmMwLTkuMzUyIDQuMTU1LTE3LjE1MyAxNi4wOTItMTguMTg4IiBmaWxsPSIjRkZGIi8+PHBhdGggZD0iTTE2NC4wOS42MDhMMTYuMDkyIDExLjUzOEM0LjE1NSAxMi41NzMgMCAyMC4zNzQgMCAyOS43MjZ2MTYyLjI0NWMwIDcuMjg0IDIuNTg1IDEzLjUxNiA4LjgyNiAyMS44NDNsMzQuNzg5IDQ1LjIzN2M1LjcxNSA3LjI4NCAxMC45MTIgOC44NDQgMjEuODI1IDguMzI3bDE3MS44NjQtMTAuNDA0YzE0LjUzMi0xLjAzNSAxOC42OTYtNy44MDEgMTguNjk2LTE5LjI0VjU1LjIwN2MwLTUuOTExLTIuMzM2LTcuNjE0LTkuMjEtMTIuNjZsLTEuMTg1LS44NTZMMTk4LjM3IDguNDA5QzE4Ni45NC4xIDE4Mi4yNy0uOTUyIDE2NC4wOS42MDhNNjkuMzI3IDUyLjIyYy0xNC4wMzMuOTQ1LTE3LjIxNiAxLjE1OS0yNS4xODYtNS4zMjNMMjMuODc2IDMwLjc3OGMtMi4wNi0yLjA4Ni0xLjAyNi00LjY5IDQuMTYzLTUuMjA3bDE0Mi4yNzQtMTAuMzk1YzExLjk0Ny0xLjA0MyAxOC4xNyAzLjEyIDIyLjg0MiA2Ljc1OGwyNC40MDEgMTcuNjhjMS4wNDMuNTI1IDMuNjM4IDMuNjM3LjUxNyAzLjYzN0w3MS4xNDYgNTIuMDk1em0tMTYuMzYgMTgzLjk1NFY4MS4yMjJjMC02Ljc2NyAyLjA3Ny05Ljg4NyA4LjMtMTAuNDEzTDIzMC4wMiA2MC45M2M1LjcyNC0uNTE3IDguMzEgMy4xMiA4LjMxIDkuODc5djE1My45MTdjMCA2Ljc2Ny0xLjA0NCAxMi40OS0xMC4zODcgMTMuMDA4bC0xNjEuNDg3IDkuMzYxYy05LjM0My41MTctMTMuNDg5LTIuNTk0LTEzLjQ4OS0xMC45MjFNMjEyLjM3NyA4OS41M2MxLjAzNCA0LjY4MSAwIDkuMzYyLTQuNjgxIDkuODk3bC03Ljc4MyAxLjU0MnYxMTQuNDA0Yy02Ljc1OCAzLjYzNy0xMi45ODEgNS43MTUtMTguMTggNS43MTVjLTguMzA4IDAtMTAuMzg2LTIuNjA0LTE2LjYwOS0xMC4zOTZsLTUwLjg5OC04MC4wNzl2NzcuNDc2bDE2LjEgMy42NDZzMCA5LjM2Mi0xMi45ODkgOS4zNjJsLTM1LjgxNCAyLjA3N2MtMS4wNDMtMi4wODYgMC03LjI4NCAzLjYzLTguMzE4bDkuMzUxLTIuNTk1VjEwOS44MjNsLTEyLjk4LTEuMDUyYy0xLjA0NC00LjY4IDEuNTUtMTEuNDM5IDguODI2LTExLjk2NWwzOC40MjYtMi41ODVsNTIuOTU4IDgxLjExM3YtNzEuNzZsLTEzLjQ5OC0xLjU1MmMtMS4wNDMtNS43MzMgMy4xMTEtOS44OTYgOC4zLTEwLjQwNHoiLz48L3N2Zz4=;fontSize=13;" vertex="1" parent="rOULUGVn5ljh-n2T-rPm-36">
          <mxGeometry x="36.639999999999986" y="7" width="66.72" height="70" as="geometry" />
        </mxCell>
        <mxCell id="rOULUGVn5ljh-n2T-rPm-129" value="" style="group" vertex="1" connectable="0" parent="rOULUGVn5ljh-n2T-rPm-142">
          <mxGeometry width="140" height="80" as="geometry" />
        </mxCell>
        <mxCell id="rOULUGVn5ljh-n2T-rPm-130" value="" style="group" vertex="1" connectable="0" parent="rOULUGVn5ljh-n2T-rPm-129">
          <mxGeometry width="140" height="80" as="geometry" />
        </mxCell>
        <mxCell id="rOULUGVn5ljh-n2T-rPm-30" value="" style="rounded=1;whiteSpace=wrap;html=1;fillColor=#F5E2CB;strokeWidth=3;" vertex="1" parent="rOULUGVn5ljh-n2T-rPm-130">
          <mxGeometry width="140" height="80" as="geometry" />
        </mxCell>
        <mxCell id="rOULUGVn5ljh-n2T-rPm-31" value="&lt;font style=&quot;font-size: 13px;&quot;&gt;Scheduler&lt;/font&gt;&lt;div&gt;&lt;font style=&quot;font-size: 13px;&quot;&gt;Periodically triggers&lt;/font&gt;&lt;/div&gt;" style="verticalLabelPosition=bottom;html=1;verticalAlign=top;align=center;strokeColor=none;fillColor=#000A0D;shape=mxgraph.azure.scheduler;pointerEvents=1;rotation=0;" vertex="1" parent="rOULUGVn5ljh-n2T-rPm-130">
          <mxGeometry x="40.25" y="7" width="59.5" height="68" as="geometry" />
        </mxCell>
        <mxCell id="rOULUGVn5ljh-n2T-rPm-44" style="edgeStyle=orthogonalEdgeStyle;rounded=0;orthogonalLoop=1;jettySize=auto;html=1;exitX=1;exitY=0.5;exitDx=0;exitDy=0;entryX=0;entryY=0.5;entryDx=0;entryDy=0;" edge="1" parent="rOULUGVn5ljh-n2T-rPm-142" source="rOULUGVn5ljh-n2T-rPm-30" target="rOULUGVn5ljh-n2T-rPm-29">
          <mxGeometry relative="1" as="geometry" />
        </mxCell>
      </root>
    </mxGraphModel>
  </diagram>
</mxfile>
